<svg xmlns="http://www.w3.org/2000/svg" width="481" height="302" fill="none"><g clip-path="url(#a)"><path d="m90.7559 202.391-2.5551-1.588c-.2437-.151-.4833-.313-.7271-.468 5.4379-.935 10.3959-3.692 14.0593-7.818 3.664-4.125 5.816-9.374 6.101-14.884.286-5.51-1.31-10.954-4.528-15.436-3.2167-4.483-7.8628-7.738-13.1747-9.231l.1259 10.016-5.5041-10.898h-.0691c-6.441-.298-12.7371 1.973-17.5041 6.314-4.7669 4.342-7.6145 10.399-7.9167 16.839-.0243.467 0 .922 0 1.381-1.9132-2.185-3.6559-4.529-4.8054-7.096-2.3276-5.195-2.3723-11.081-2.1895-18.238.3656-14.176.9789-28.465 1.7751-42.706 5.7477-.64 11.0791-3.308 15.0369-7.524 3.9578-4.217 6.2827-9.7063 6.5574-15.4826.0325-.7434.0203-1.4745 0-2.2056 0-.1828 0-.3615-.0285-.5443-.0487-.7068-.1137-1.4054-.2234-2.0959 0-.1138-.0406-.2234-.0609-.3331-.0975-.5849-.2194-1.1617-.3575-1.7304-.0528-.2153-.1056-.4265-.1625-.6377-.1706-.6215-.3574-1.2185-.5768-1.836-.0731-.199-.1544-.4061-.2356-.593-.1706-.4427-.3575-.8814-.5565-1.312-.1056-.2274-.2072-.4549-.3169-.6783-.0324-.0569-.0528-.1178-.0853-.1747-2.5674-5.0674-6.8288-9.0755-12.044-11.3283-5.2152-2.2528-11.0548-2.6078-16.5046-1.0035l.1625 13.0386-5.4432-10.7721c-4.4721 2.5631-8.0088 6.4871-10.0948 11.2004-2.0861 4.7132-2.6125 9.9694-1.5026 15.0027h-.0487c.0365.1747.0893.3412.13.5118.0771.3209.1584.6378.2478.9546.1178.4062.2437.8124.3777 1.2185.1016.3006.1991.5971.3128.8937.1666.4305.3534.8489.5403 1.2673.1097.2437.2071.4955.3249.7352.3088.6282.6446 1.2415 1.0075 1.84.1259.2112.2681.4062.4062.6133.2599.4062.5199.8124.8124 1.1902.1747.2396.3615.4711.5443.7027.2681.3371.5403.6705.8124.9915.1991.231.4062.454.6134.674.3006.317.6053.621.9221.918.2113.199.4062.406.6378.593.3574.321.7312.621 1.1089.918.191.15.3778.304.5728.451.5768.406 1.1699.812 1.7833 1.218.1137.069.2396.126.3534.195.5159.301 1.0358.589 1.572.849.2316.114.4672.215.7028.321.4387.195.8814.386 1.3364.561l.8124.284c.4469.15.9018.292 1.3608.406.2681.073.5403.15.8125.215.4955.118 1.0033.216 1.5151.305l.0975.02c-.3331 6.009-.631 12.019-.8936 18.031-1.4488-2.977-3.4907-5.627-6.0002-7.786-2.5096-2.16-5.434-3.784-8.5937-4.773-3.1598-.989-6.4883-1.321-9.7814-.978-3.2931.344-6.4812 1.356-9.3688 2.976l4.2977 11.78-8.84321-8.49c-2.35093 2.146-4.25618 4.733-5.60693 7.615-1.350757 2.882-2.120566 6.002-2.2654676 9.181-.112853 2.251.0950436 4.506.6174426 6.698 1.111975 4.742 3.623225 9.041 7.208105 12.339 3.58486 3.298 8.07796 5.443 12.89666 6.157 4.8187.713 9.7407-.037 14.1276-2.155 4.3869-2.117 8.0365-5.504 10.4754-9.72 0 .609-.0407 1.218-.0569 1.832-.1625 6.312-.3656 14.168 2.7825 21.182 2.1327 4.753 5.5611 8.616 8.9367 12.076 2.2057 2.251 4.4927 4.432 6.8366 6.54 2.3076 3.098 5.3175 5.603 8.7823 7.311 3.8509 2.966 7.8399 5.756 11.9629 8.331l2.5754 1.601c2.3154 1.433 4.6877 2.908 7.0112 4.439-.4062-.04-.8124-.085-1.2186-.105-5.1552-.24-10.2532 1.165-14.557 4.012-4.3039 2.848-7.5906 6.991-9.3852 11.829l15.1924 12.36-16.7116-3.875c.0077 4.113 1.058 8.157 3.0529 11.753 1.9948 3.597 4.869 6.629 8.3539 8.813 3.4849 2.185 7.4668 3.45 11.5735 3.678 4.1067.228 8.2041-.589 11.9095-2.375l-1.129 1.402c-.748.928-1.4859 1.852-2.2144 2.77-9.8872 12.523-12.6372 24.408-7.7424 33.47l5.9551-3.213c-4.7649-8.823 2.4007-20.115 7.0967-26.061.715-.902 1.441-1.809 2.177-2.722 6.317-7.847 13.474-16.743 13.3-27.653-.277-16.446-16.225-26.341-29.0731-34.294ZM367.768 177.508l3.185-1.982c.305-.191.601-.407.906-.585-6.815-1.167-13.027-4.627-17.607-9.806-4.58-5.178-7.254-11.766-7.578-18.672-.231-4.746.667-9.479 2.62-13.81 1.821-4.058 4.512-7.667 7.881-10.571 3.369-2.905 7.335-5.034 11.617-6.237l-.158 12.498 6.869-13.595h.081c8.038-.374 15.895 2.46 21.843 7.878 5.949 5.418 9.502 12.977 9.878 21.014.028.581 0 1.149 0 1.722 2.393-2.725 4.562-5.65 5.996-8.851 2.908-6.499 2.965-13.81 2.733-22.746-.455-17.6895-1.218-35.513-2.213-53.2796-7.172-.7979-13.824-4.1264-18.761-9.3877-4.938-5.2612-7.838-12.1105-8.179-19.3175-.041-.9262-.029-1.8401 0-2.7499 0-.2275.012-.455.036-.6824.057-.8815.142-1.7548.272-2.6118.021-.1422.057-.2803.077-.4062.125-.7311.275-1.4514.451-2.1609.065-.264.13-.5321.199-.8124.216-.7717.447-1.5394.719-2.2868.09-.2519.195-.4915.293-.7393.219-.5565.451-1.1007.699-1.6247.13-.2803.255-.5646.406-.8449.032-.069.065-.1462.101-.2153 3.201-6.3245 8.517-11.32718 15.024-14.13764 6.508-2.810456 13.794-3.250872 20.593-1.24463l-.203 16.24747 6.792-13.43666c5.58 3.19579 9.994 8.09116 12.596 13.97186 2.602 5.8807 3.257 12.439 1.869 18.7181h.037c-.049.2152-.118.4062-.167.6377-.097.4062-.199.8124-.309 1.1901-.142.5077-.304 1.0033-.471 1.4988-.126.3737-.248.7474-.406 1.1171-.207.5361-.439 1.0601-.674 1.58-.139.3047-.26.6174-.407.918-.386.7839-.812 1.5516-1.255 2.295-.154.264-.333.5118-.499.7677-.325.5036-.654.9992-1.008 1.4825-.219.3006-.451.5849-.678.8774-.333.4062-.671.8367-1.028 1.2389-.246.2708-.502.551-.768.8408-.369.4062-.755.7717-1.145 1.1414-.264.2518-.524.5036-.813.7433-.451.4062-.914.7717-1.389 1.1414-.236.1868-.467.3858-.711.5646-.719.528-1.458 1.0317-2.226 1.4988-.142.0853-.296.1584-.443.2437-.639.3791-1.291.7325-1.958 1.0602-.288.1421-.584.264-.877.4061-.548.2478-1.101.4834-1.665.6987-.334.1259-.667.2437-1 .3574-.56.1909-1.125.3615-1.698.5199-.337.0935-.674.1869-1.019.2722-.622.1462-1.251.2681-1.889.3777l-.126.0244c.422 7.4982.795 14.9978 1.117 22.4987 1.808-3.7138 4.356-7.019 7.487-9.7126 3.132-2.6935 6.781-4.7187 10.723-5.9511 3.943-1.2325 8.095-1.6461 12.203-1.2157 4.109.4305 8.085 1.696 11.687 3.719l-5.358 14.6877 11.029-10.5893c2.94 2.6685 5.325 5.8901 7.019 9.4808 1.695 3.5908 2.665 7.4801 2.856 11.4459.141 2.8074-.117 5.6207-.768 8.3557-1.387 5.917-4.52 11.281-8.993 15.396-4.473 4.115-10.079 6.791-16.091 7.682-6.012.89-12.154-.046-17.627-2.688-5.474-2.642-10.027-6.867-13.07-12.129 0 .76.053 1.528.073 2.287.203 7.876.455 17.678-3.469 26.427-2.661 5.934-6.942 10.748-11.175 15.065-2.754 2.811-5.598 5.531-8.531 8.161-2.883 3.862-6.642 6.984-10.967 9.11-4.806 3.701-9.782 7.182-14.924 10.399l-3.214 1.994c-2.888 1.787-5.845 3.627-8.749 5.536.511-.048 1.015-.105 1.535-.13 6.427-.296 12.782 1.457 18.148 5.006 5.365 3.55 9.464 8.713 11.705 14.743l-18.954 15.435 20.851-4.829c-.008 5.129-1.315 10.173-3.8 14.661-2.484 4.487-6.066 8.272-10.41 11-4.344 2.729-9.309 4.312-14.43 4.602-5.122.29-10.233-.723-14.858-2.943.472.585.939 1.17 1.41 1.751.93 1.157 1.86 2.311 2.766 3.456 12.333 15.618 15.765 30.464 9.656 41.756l-7.426-4.009c5.943-11.007-2.997-25.094-8.859-32.495-.89-1.125-1.8-2.258-2.714-3.395-7.88-9.79-16.813-20.887-16.593-34.498.341-20.557 20.261-32.901 36.27-42.82Z" fill="#F2F2F2"/><path d="M237.35 302c115.313 0 208.793-5.001 208.793-11.17s-93.48-11.17-208.793-11.17c-115.314 0-208.7934 5.001-208.7934 11.17S122.036 302 237.35 302Z" fill="#3F3D56"/><path opacity=".2" d="M236.944 296.313c103.198 0 186.857-4 186.857-8.936 0-4.935-83.659-8.936-186.857-8.936-103.199 0-186.8581 4.001-186.8581 8.936 0 4.936 83.6591 8.936 186.8581 8.936Z" fill="#000"/><path d="M414.861 70.3556V285.042c0 .776-.309 1.521-.858 2.071-.549.549-1.294.857-2.071.857H62.7558c-.3844 0-.7651-.075-1.1202-.223-.3551-.147-.6777-.363-.9493-.635-.2717-.272-.487-.595-.6338-.95-.1467-.355-.222-.736-.2214-1.12V70.3556c-.0006-.3844.0747-.7651.2214-1.1204.1468-.3553.3621-.6782.6338-.9502.2716-.272.5942-.4877.9493-.635.3551-.1472.7358-.223 1.1202-.223H411.92c.385-.0016.767.073 1.124.2194.357.1465.681.362.955.6341.273.2721.49.5955.638.9516.148.3561.224.7379.224 1.1235Z" fill="#F1F8F8"/><path d="M414.861 69.3808v6.5761H59.8311v-6.5761c0-.5182.2058-1.0152.5722-1.3816.3665-.3664.8634-.5722 1.3816-.5722H412.907c.518 0 1.015.2058 1.381.5722.367.3664.573.8634.573 1.3816Z" fill="#CBCEDA"/><path d="M66.3304 73.5199c1.1217 0 2.031-.9093 2.031-2.031 0-1.1216-.9093-2.0309-2.031-2.0309-1.1217 0-2.0311.9093-2.0311 2.0309 0 1.1217.9094 2.031 2.0311 2.031ZM72.0174 73.5199c1.1217 0 2.031-.9093 2.031-2.031 0-1.1216-.9093-2.0309-2.031-2.0309-1.1217 0-2.0311.9093-2.0311 2.0309 0 1.1217.9094 2.031 2.0311 2.031ZM77.7044 73.5199c1.1217 0 2.0311-.9093 2.0311-2.031 0-1.1216-.9094-2.0309-2.0311-2.0309s-2.0311.9093-2.0311 2.0309c0 1.1217.9094 2.031 2.0311 2.031Z" fill="#2B9AB2"/><path opacity=".2" d="M291.376 97.2817H183.323v5.6863h108.053v-5.6863ZM176.824 154.96H93.5508v97.485h83.2732V154.96ZM278.784 154.96H195.51v97.485h83.274V154.96ZM297.469 252.445h83.274V154.96h-83.274v97.485Z" fill="#2B9AB2"/><path d="M131.462 204.507c-.247 1.466-1.698 2.388-3.066 2.961-1.369.573-2.901 1.048-3.778 2.246-1.182 1.625-.687 3.953.406 5.638 1.239 1.934 3.116 3.359 4.952 4.74.795.674 1.703 1.203 2.681 1.564.745.191 1.514.273 2.283.244 2.475-.001 4.945-.222 7.38-.662 3.124-.569 6.463-1.706 8.125-4.419 1.348-2.222 1.263-4.996 1.133-7.596-1.47-.126-2.787-.926-4.038-1.702-1.478-.918-3.075-1.986-3.554-3.656-.504-1.75.301-3.911-.898-5.28-.812-.926-2.189-1.036-3.416-1.068-1.665-.044-3.33-.067-4.992-.069-1.146 0-3.705-.48-4.647.284-1.735 1.385 1.742 4.915 1.429 6.775Z" fill="#A0616A"/><path opacity=".1" d="M131.462 204.507c-.247 1.466-1.698 2.388-3.066 2.961-1.369.573-2.901 1.048-3.778 2.246-1.182 1.625-.687 3.953.406 5.638 1.239 1.934 3.116 3.359 4.952 4.74.795.674 1.703 1.203 2.681 1.564.745.191 1.514.273 2.283.244 2.475-.001 4.945-.222 7.38-.662 3.124-.569 6.463-1.706 8.125-4.419 1.348-2.222 1.263-4.996 1.133-7.596-1.47-.126-2.787-.926-4.038-1.702-1.478-.918-3.075-1.986-3.554-3.656-.504-1.75.301-3.911-.898-5.28-.812-.926-2.189-1.036-3.416-1.068-1.665-.044-3.33-.067-4.992-.069-1.146 0-3.705-.48-4.647.284-1.735 1.385 1.742 4.915 1.429 6.775Z" fill="#000"/><path d="M137.137 203.67c6.58 0 11.915-5.334 11.915-11.913 0-6.58-5.335-11.914-11.915-11.914-6.58 0-11.914 5.334-11.914 11.914 0 6.579 5.334 11.913 11.914 11.913Z" fill="#A0616A"/><path d="M162.034 220.669c-.078.717-.307 1.409-.67 2.031-.108.167-.231.325-.366.471-.67.736-1.625 1.219-2.49 1.735-2.437 1.482-5.171 3.412-5.626 6.235-.15.878-.355 1.746-.613 2.599-.569 1.934-1.312 3.835-1.747 5.768-.271 1.121-.392 2.272-.362 3.424.014.361.047.72.098 1.077.386 2.737 1.791 5.195 3.445 7.53.178.252.357.504.54.752l.118.158H115.47c.065-.247.13-.491.191-.739.007-.038.017-.076.028-.114.386-1.547.723-3.103.959-4.671.22-1.392.341-2.798.361-4.208 0-1.219.268-2.567 1.288-3.249.069-.248.134-.5.199-.748.899-3.689.88-7.543-.057-11.223-.057-.227-.122-.455-.183-.682-.028-.102-.06-.203-.089-.305-.343-1.082-.63-2.182-.861-3.294-.24-1.328-.293-2.742-.999-3.887-.707-1.146-1.938-1.816-3.031-2.592-.536-.365-1.019-.804-1.434-1.304-.452-.523-.723-1.178-.771-1.868-.008-.204.007-.408.044-.609.201-.838.63-1.604 1.239-2.214 2.47-2.717 6.244-3.859 9.952-3.908.573 0 1.142 0 1.706.049.661.011 1.312.157 1.914.431.371.191.696.46.954.788.364.457.639.978.813 1.535.146.448.255.907.325 1.373.227 1.45.276 2.994 1.04 4.245 1.385 2.266 4.541 2.681 7.149 2.189 2.328-.457 4.526-1.422 6.438-2.826 1.912-1.405 3.49-3.213 4.623-5.298.243-.506.514-.998.813-1.474.158-.239.343-.458.552-.654 3.613.665 7.01 2.199 9.899 4.468.906.684 1.698 1.507 2.348 2.437 1.219 1.925 1.495 4.33 1.154 6.572Z" fill="#F2F2F2"/><path d="M163.253 245.199c-.329 1.135-.832 2.212-1.491 3.193-.435.833-1.019 1.579-1.722 2.201-1.442 1.133-3.437 1.109-5.281 1.003h-.146l-.914-.052-5.245-.313c-1.389-.05-2.774-.198-4.143-.443-.366-.073-.727-.162-1.089-.26-2.031-.544-4.017-1.357-6.117-1.474-.609-.037-1.219 0-1.84 0h-.171c-.407 0-.815-.027-1.219-.082-.666-.097-1.32-.308-1.998-.341-1.739-.089-3.274.955-4.757 1.905l-.406.252c-1.061.672-2.188 1.233-3.363 1.674h-7.044c-.119-.091-.23-.193-.329-.305-.121-.133-.227-.279-.317-.435-.02-.036-.041-.073-.057-.109-.229-.491-.347-1.025-.347-1.566 0-.541.118-1.076.347-1.566.262-.564.609-1.084 1.028-1.544.461-.5.958-.967 1.487-1.397 2.737-2.283 5.886-4.208 9.387-4.874.244-.045.492-.085.735-.118 1.753-.201 3.519-.259 5.281-.175l1.653.033 6.926.142h.191c2.783.053 5.708.073 8.222-1.036.32-.142.632-.302.934-.479.258-.131.48-.323.646-.561.162-.327.228-.693.191-1.056l-.024-3.655-.049-7.048c0-1.73-.011-3.459-.033-5.187-.068-.535-.014-1.079.158-1.591.172-.511.459-.977.838-1.362 1.011-1.271 3.477-5.759 5.224-5.832.31-.018.617.068.873.243 1.487.991 1.495 4.749 1.531 6.016.041 1.4.102 2.798.183 4.196.333 5.722 1.012 11.419 2.031 17.06.301 1.62.626 3.318.236 4.943Z" fill="#A0616A"/><path opacity=".1" d="M163.253 245.199c-.329 1.135-.832 2.212-1.491 3.193-.435.833-1.019 1.579-1.722 2.201-1.442 1.133-3.437 1.109-5.281 1.003h-.146l-.914-.052-5.245-.313c-1.389-.05-2.774-.198-4.143-.443-.366-.073-.727-.162-1.089-.26-2.031-.544-4.017-1.357-6.117-1.474-.609-.037-1.219 0-1.84 0h-.171c-.407 0-.815-.027-1.219-.082-.666-.097-1.32-.308-1.998-.341-1.739-.089-3.274.955-4.757 1.905l-.406.252c-1.061.672-2.188 1.233-3.363 1.674h-7.044c-.119-.091-.23-.193-.329-.305-.121-.133-.227-.279-.317-.435-.02-.036-.041-.073-.057-.109-.229-.491-.347-1.025-.347-1.566 0-.541.118-1.076.347-1.566.262-.564.609-1.084 1.028-1.544.461-.5.958-.967 1.487-1.397 2.737-2.283 5.886-4.208 9.387-4.874.244-.045.492-.085.735-.118 1.753-.201 3.519-.259 5.281-.175l1.653.033 6.926.142h.191c2.783.053 5.708.073 8.222-1.036.32-.142.632-.302.934-.479.258-.131.48-.323.646-.561.162-.327.228-.693.191-1.056l-.024-3.655-.049-7.048c0-1.73-.011-3.459-.033-5.187-.068-.535-.014-1.079.158-1.591.172-.511.459-.977.838-1.362 1.011-1.271 3.477-5.759 5.224-5.832.31-.018.617.068.873.243 1.487.991 1.495 4.749 1.531 6.016.041 1.4.102 2.798.183 4.196.333 5.722 1.012 11.419 2.031 17.06.301 1.62.626 3.318.236 4.943Z" fill="#000"/><path d="M129.289 172.865c-1.032.154-2.173.43-2.734 1.308-.438.682-.406 1.547-.556 2.344-.243 1.278-.956 2.418-1.999 3.196-.853.63-1.885.983-2.766 1.572-.882.589-1.661 1.552-1.544 2.608.102.922.837 1.625 1.182 2.494.638 1.584-.113 3.351-.812 4.911-.699 1.559-1.357 3.395-.556 4.902.849 1.589 3.038 2.19 3.655 3.875.768 2.031-1.218 4.196-.962 6.361.219 1.779 1.974 3.051 3.749 3.311.849.122 1.791.036 2.437-.528.646-.565.849-1.487.878-2.344.109-3.306-1.771-6.341-2.32-9.606-.178-1.077-.203-2.23.297-3.201.317-.613.812-1.117 1.088-1.755.549-1.328-.073-2.933.516-4.244.334-.575.719-1.119 1.15-1.625.378-.549.63-1.276.333-1.873 1.05.668 1.888 1.62 2.417 2.746.768-.154.747-1.803 1.499-1.568.211.069.333.293.471.467.276.308.637.528 1.036.634.4.105.822.091 1.215-.041.781-.28 1.468-.774 1.982-1.425l1.283 1.592c.117-.275.314-.507.566-.667.252-.16.546-.239.844-.227.596.041 1.171.239 1.665.573 2.438 1.458 4.266 4.444 3.331 7.124-.406 1.146-1.218 2.084-1.763 3.173-.544 1.088-.682 2.551.187 3.396.179.178.407.316.561.511.638.752.235 1.897.426 2.844.338 1.742 2.393 2.437 4.123 2.843 1.219.276 2.669.483 3.522-.406.935-.975.516-2.571-.048-3.798-.565-1.227-1.219-2.644-.614-3.847.605-1.202 2.381-1.624 3.018-2.88.813-1.596-.621-3.347-1.194-5.044-.784-2.324.089-4.932-.552-7.312-.39-1.201-.998-2.319-1.796-3.298-1.897-2.551-4.172-4.895-6.991-6.373-2.664-1.397-5.35-1.625-8.286-1.271-2.637.333-5.293.154-7.938.548Z" fill="#3C354C"/><path d="M152.443 226.851c-.118-.069-.221-.162-.302-.273-.08-.111-.136-.238-.165-.372-.902-2.535-1.747-5.087-2.535-7.657-.179-.453-.244-.942-.191-1.426.184-.603.568-1.127 1.089-1.482 1.335-1.101 2.836-1.981 4.448-2.608 1.17-.459 2.896-1.275 4.062-.532 1.446.922-.097 3.249-.625 4.468-.716 1.671-1.53 3.299-2.438 4.874-.276.488-2.973 5.155-3.343 5.008Z" fill="#F2F2F2"/><path d="M154.763 251.596c-.102.198-.231.381-.382.545-.045.052-.094.101-.146.146-.057.057-.119.11-.183.158h-7.064c-1.176-.441-2.303-1.001-3.364-1.673l-.406-.252c-1.483-.951-3.018-1.994-4.757-1.905-.678.032-1.332.244-1.998.341-.404.054-.811.081-1.219.081h-.17c-.614 0-1.219-.028-1.841 0-2.1.118-4.082.93-6.117 1.475-.362.097-.723.187-1.089.26-1.369.245-2.753.393-4.143.442l-6.158.366h-.146c-1.841.106-3.835.13-5.281-1.003-.704-.623-1.288-1.369-1.723-2.202-.658-.981-1.161-2.058-1.49-3.192-.407-1.625-.065-3.323.231-4.968 1.264-7.022 2.002-14.128 2.206-21.26.036-1.271.045-5.041 1.539-6.02.169-.116.362-.191.565-.219.1-.01.201-.01.301 0 1.746.073 4.212 4.562 5.224 5.833.378.385.665.85.837 1.362.173.511.226 1.055.158 1.591 0 1.668-.011 3.339-.033 5.012v.228c-.019 3.558-.042 7.115-.069 10.67-.037.363.029.729.191 1.056.058.095.129.181.211.256.135.116.28.218.435.305 2.701 1.592 6.02 1.576 9.156 1.515h.191l6.926-.142 1.653-.033c1.762-.084 3.528-.026 5.281.175.244.032.491.073.735.118 2.69.571 5.226 1.715 7.434 3.355.677.479 1.335.986 1.974 1.519.999.812 1.982 1.755 2.514 2.941.23.487.35 1.019.353 1.558.003.539-.112 1.071-.336 1.561Z" fill="#A0616A"/><path d="M118.342 226.851c.118-.069.22-.163.301-.274.08-.111.137-.237.166-.371.902-2.535 1.747-5.087 2.535-7.657.176-.453.24-.942.187-1.426-.184-.603-.568-1.127-1.089-1.482-1.332-1.102-2.833-1.982-4.444-2.608-1.17-.459-2.892-1.275-4.062-.532-1.446.922.093 3.249.625 4.468.715 1.672 1.529 3.3 2.438 4.874.276.488 2.973 5.155 3.343 5.008Z" fill="#F2F2F2"/><path d="M338.123 180.745c2.417-.589 4.294 3.412 6.727 2.937 1.336-.26 2.368-1.844 3.721-1.726 1.539.134 2.197 2.238 2.985 3.777 1.369 2.665 4.136 4.277 6.8 3.956.837-1.104.679-2.802.252-4.183-.426-1.381-1.076-2.722-1.093-4.192-.02-1.946 1.048-4.099.082-5.687-.744-1.218-2.263-1.316-3.38-2.067-.873-.585-1.487-1.564-2.218-2.364-1.173-1.309-2.778-2.152-4.521-2.377-1.438-.162-2.884.147-4.306.455l-6.646 1.438c-.386.046-.749.212-1.035.476-.271.411-.453.875-.537 1.36-.629 2.064-2.603 3.03-4.216 4.176-1.613 1.145-3.144 3.412-2.255 5.341.504 1.093 1.69 1.767 1.816 2.994.11 1.097-.682 1.994-1.328 2.807-2.742 3.436 3.404 5.223 4.874 2.892 1.638-2.567.821-9.168 4.278-10.013Z" fill="#3C354C"/><path d="M334.609 202.358c-.577.752-1.328 1.377-1.791 2.206-.581 1.185-.678 2.551-.268 3.806.417 1.238 1 2.413 1.734 3.493.842 1.476 1.865 2.841 3.047 4.062 1.188 1.233 2.767 2.017 4.468 2.218 1.808.134 3.555-.614 5.192-1.398.698-.278 1.335-.692 1.872-1.218.392-.498.699-1.056.91-1.653l1.41-3.376c.396-.819.67-1.692.812-2.591.146-1.402-.341-2.787-.812-4.115l-2.58-7.096c-.107-.407-.32-.778-.617-1.076-.283-.205-.607-.344-.951-.407-1.633-.422-3.301-.694-4.984-.812-1.251-.085-4.091-.528-5.183.179-1.004.654-.585 2.319-.703 3.395-.106 1.577-.644 3.093-1.556 4.383Z" fill="#A0616A"/><path opacity=".1" d="M334.609 202.358c-.577.752-1.328 1.377-1.791 2.206-.581 1.185-.678 2.551-.268 3.806.417 1.238 1 2.413 1.734 3.493.842 1.476 1.865 2.841 3.047 4.062 1.188 1.233 2.767 2.017 4.468 2.218 1.808.134 3.555-.614 5.192-1.398.698-.278 1.335-.692 1.872-1.218.392-.498.699-1.056.91-1.653l1.41-3.376c.396-.819.67-1.692.812-2.591.146-1.402-.341-2.787-.812-4.115l-2.58-7.096c-.107-.407-.32-.778-.617-1.076-.283-.205-.607-.344-.951-.407-1.633-.422-3.301-.694-4.984-.812-1.251-.085-4.091-.528-5.183.179-1.004.654-.585 2.319-.703 3.395-.106 1.577-.644 3.093-1.556 4.383Z" fill="#000"/><path d="M343.05 200.689c6.215 0 11.253-5.038 11.253-11.252s-5.038-11.251-11.253-11.251c-6.214 0-11.252 5.037-11.252 11.251 0 6.214 5.038 11.252 11.252 11.252Z" fill="#A0616A"/><path d="M367.984 217.533c.024 3.104-1.166 6.093-2.397 8.937-1.231 2.843-2.795 5.65-3.997 8.57-.098.236-.191.475-.284.715-2.069 5.345-3.9 10.773-5.492 16.284l-.118.406h-34.894c1.593-6.093 2.957-12.185-.861-16.389-.118-.13-.236-.264-.349-.407-2.499-3.01-3.62-7.116-6.589-9.675-.683-.589-1.475-1.109-1.897-1.909-.243-.492-.365-1.035-.358-1.584-.002-.484.028-.967.09-1.446.292-2.64.67-5.411 2.262-7.539.728-.931 1.598-1.74 2.58-2.397 2.169-1.524 4.611-2.615 7.194-3.213 2.908-.666 6.117-.763 8.49-2.579.499-.46 1.043-.868 1.625-1.218l.162-.069c.281-.133.593-.186.902-.153.309.033.602.15.849.339.307.342.51.765.585 1.219.43 1.576.862 3.152 1.296 4.728.146.779.482 1.51.979 2.128 1.149 1.195 3.347 1.052 4.24 2.438.537.84 1.946-.139 2.56-.918 1.487-1.884 2.774-3.918 3.838-6.069.359-.853.838-1.65 1.422-2.368.419-.462.964-.792 1.568-.95.295-.073.603-.082.902-.025.877.179 1.519.902 2.116 1.568 3.573 3.99 7.795 7.348 12.487 9.931.372.158.69.42.914.756.098.204.151.427.154.654.017.085.021.162.021.235ZM339.338 180.172c1.88-.406 3.339 2.295 5.232 1.974 1.04-.17 1.844-1.218 2.892-1.157 1.198.089 1.71 1.503 2.323 2.534.546.891 1.33 1.612 2.262 2.082.933.469 1.979.67 3.019.579.65-.744.528-1.881.195-2.811-.333-.93-.841-1.832-.853-2.815 0-1.312.813-2.758.065-3.826-.577-.813-1.759-.886-2.628-1.389-.678-.406-1.154-1.052-1.727-1.588-.963-.905-2.198-1.466-3.513-1.597-1.125-.056-2.252.046-3.347.305l-5.167.967c-.296.024-.579.134-.813.316-.202.27-.341.583-.406.914-.492 1.389-2.031 2.031-3.278 2.807-1.247.776-2.437 2.295-1.755 3.591.406.735 1.312 1.186 1.41 2.031.089.735-.529 1.34-1.032 1.884-2.129 2.308 2.648 3.51 3.798 1.942 1.271-1.739.633-6.174 3.323-6.743Z" fill="#3C354C"/><path d="M373.264 252.445h-9.501c.154-3.891-1.43-7.843-1.625-11.812-.073-1.49.053-3.005-.248-4.468-.079-.38-.18-.756-.304-1.125-.24-.751-.532-1.491-.76-2.246-.755-2.522-.727-5.203-.69-7.835.043-2.906.089-5.809.138-8.709 0-.756-.224-1.868.463-2.185 1.547-.715 3.156.702 4.578 1.624.853.569 1.828 1.016 2.656 1.625.494.34.922.767 1.264 1.259.4.678.684 1.418.841 2.19 1.15 4.395 2.152 8.826 3.006 13.294.405 1.942.677 3.91.812 5.89.248 4.159-.617 8.355-.63 12.498ZM314.25 247.92c-.406.991-.845 2.031-.784 3.112.037.484.146.961.325 1.413h-8.608c-.432-1.464-.757-2.957-.975-4.468-.406-2.941-.182-5.934.199-8.883.257-2.29.757-4.547 1.491-6.731 1-2.798 2.58-5.333 3.924-7.965.317-.613.605-1.304.943-1.913.723-1.337 1.657-2.319 3.517-1.422 4.627 2.23 6.614 10.041 5.326 14.59.002.013.002.025 0 .037-.367 1.155-.826 2.278-1.373 3.359-1.397 2.93-2.726 5.887-3.985 8.871Z" fill="#3C354C"/><path d="M238.849 175.058c.921.336 1.692.99 2.173 1.844.37.768.358 1.666.609 2.482.533 1.718 2.133 2.844 3.128 4.346 1.349 2.031 1.507 4.619 1.414 7.056-.094 2.437-.406 4.923.203 7.291.288 1.154.78 2.25.979 3.424.24 1.422.041 2.908.406 4.306.321 1.271 1.073 2.384 1.812 3.465l3.16 4.618c-1.414-.335-2.807-.754-4.172-1.255.421 1.323 1.202 2.503 2.255 3.408l-2.283-2.762c-.465-.64-1.041-1.191-1.702-1.625-.837-.475-1.828-.548-2.77-.743-1.808-.366-3.62-1.292-4.505-2.921-1.182-2.169-.407-4.894-1.085-7.275-.483-1.738-1.678-3.172-2.498-4.772-1.865-3.628-1.751-7.905-2.336-11.942-.252-1.714-.634-3.416-.642-5.151 0-1.279.126-3.708 1.467-4.362 1.162-.549 3.306.109 4.387.568Z" fill="#3F3D56"/><path d="M240.242 204.113c.191 2.12.634 4.622 2.567 5.512 1.093.504 2.365.317 3.551.512 2.238.361 4.062 2.084 5.118 4.102 1.056 2.019 1.393 4.31 1.625 6.568.304 2.823.406 5.89-1.15 8.27-1.255 1.93-3.424 3.104-5.646 3.701-2.236.583-4.574.666-6.846.245-2.272-.421-4.424-1.337-6.303-2.682-1.84-1.337-3.36-3.059-4.838-4.781-3.221-3.749-6.463-7.86-7.125-12.759-.077-.556-.069-1.218.406-1.559.315-.178.677-.25 1.036-.208l3.087.057c.784 0 1.67 0 2.202-.589s.499-1.328.479-2.031c-.078-2.978-.157-5.964-.235-8.956-.048-.317.025-.64.203-.906.196-.177.446-.285.71-.304 1.703-.289 3.482 0 5.147-.463 1.584-.435 4.062-2.255 5.236-.386.983 1.563.626 4.854.776 6.657Z" fill="#FFC1C7"/><path opacity=".1" d="M240.242 204.113c.191 2.12.634 4.622 2.567 5.512 1.093.504 2.365.317 3.551.512 2.238.361 4.062 2.084 5.118 4.102 1.056 2.019 1.393 4.31 1.625 6.568.304 2.823.406 5.89-1.15 8.27-1.255 1.93-3.424 3.104-5.646 3.701-2.236.583-4.574.666-6.846.245-2.272-.421-4.424-1.337-6.303-2.682-1.84-1.337-3.36-3.059-4.838-4.781-3.221-3.749-6.463-7.86-7.125-12.759-.077-.556-.069-1.218.406-1.559.315-.178.677-.25 1.036-.208l3.087.057c.784 0 1.67 0 2.202-.589s.499-1.328.479-2.031c-.078-2.978-.157-5.964-.235-8.956-.048-.317.025-.64.203-.906.196-.177.446-.285.71-.304 1.703-.289 3.482 0 5.147-.463 1.584-.435 4.062-2.255 5.236-.386.983 1.563.626 4.854.776 6.657Z" fill="#000"/><path d="M232.467 203.532c6.517 0 11.801-5.283 11.801-11.8 0-6.516-5.284-11.799-11.801-11.799s-11.8 5.283-11.8 11.799c0 6.517 5.283 11.8 11.8 11.8Z" fill="#FFC1C7"/><path d="M258.733 242.262c-.081.482-.193.959-.337 1.426-.378 1.09-.812 2.16-1.3 3.205-.187.434-.362.869-.512 1.316-.118.349-.219.707-.309 1.064-.089.357-.195.841-.268 1.267-.109.63-.191 1.268-.256 1.905h-30.795c.133-1.558.074-3.127-.174-4.671-.414-2.126-1.051-4.202-1.901-6.194-1.962-5.029-4.156-10.155-5.362-15.399v-.02c-.844-3.403-1.097-6.926-.748-10.415.025-.203.053-.406.081-.617.073-.527.172-1.051.297-1.568.298-1.472.974-2.841 1.962-3.972 1.381-1.487 3.717-2.222 5.508-1.272 1.081.573 1.751 1.588 2.287 2.713.341.715.63 1.471.93 2.19 1.101 2.595 2.684 4.959 4.664 6.966.377.406.776.768 1.186 1.125.41.358.768.658 1.17.967 1.304 1.003 2.876 2.274 4.578 2.319.987.029 1.994 0 3.014 0 .893 0 1.795-.036 2.685 0 1.905.037 4.062-.504 4.984-2.173.63-1.141.524-2.535.406-3.834-.093-1.016-.187-2.031-.284-3.051v-.158c-.065-.735-.134-1.463-.203-2.198-.033-.353-.065-.711-.102-1.064l-.073-.788c.339-.038.68-.07 1.024-.097 1.539-.122 3.111-.094 4.436.658 1.259.71 2.031 1.933 2.526 3.318.33.987.542 2.01.634 3.047.455 4.61-.28 9.261-.028 13.883.162 3.347.869 6.82.28 10.122Z" fill="#2B9AB2"/><path d="M265.764 252.445h-9.314c-.077-1.056-.138-2.112-.175-3.172-.032-.731-.056-1.467-.069-2.198-.04-1.971-.024-3.937.049-5.898 1.834 1.037 3.887 1.623 5.992 1.711.851.953 1.538 2.041 2.031 3.221.276.648.508 1.314.694 1.994.003.009.003.019 0 .028.382 1.414.647 2.857.792 4.314Z" fill="#FFC1C7"/><path d="M264.948 246.096c-3.523.035-7.029.499-10.44 1.382-.451-2.226-.231-4.525 0-6.784l1.507-15.52c.11-1.15-.101-11.702 2.125-9.838.812.686 1.852 6.856 2.108 7.847.386 1.499.691 3.014.963 4.534.556 3.119.934 6.263 1.474 9.387.155.901 1.459 9.001 2.263 8.992Z" fill="#2B9AB2"/><path d="M236.964 176.728c.016-.369-.068-.736-.244-1.06-.152-.193-.344-.352-.561-.467-.218-.115-.457-.183-.702-.199-1.702-.264-3.571.406-5.11-.358-.813-.406-1.426-1.218-2.239-1.669-1.917-1.085-4.338 0-6.036 1.405-2.703 2.245-4.674 5.246-5.658 8.619-.756 2.608-1.061 5.659-3.222 7.312-.893.682-2.031 1.06-2.701 1.97-.504.698-.622 1.596-.715 2.437-.223 1.982-.406 4.013.11 5.938.406 1.434 1.157 2.734 1.625 4.143.643 1.996.702 4.133.171 6.161-.531 2.028-1.631 3.862-3.169 5.286.787.49 1.734.655 2.64.459-.017.416-.15.82-.382 1.166 2.762-.09 5.163-2.779 7.864-2.19 2.064.447 3.214 2.575 4.753 4.021 1.982 1.865 5.062 2.645 7.552 1.54 2.49-1.105 4.001-4.249 2.945-6.759-1.219-2.843-4.911-3.985-6.199-6.808-.995-2.189-.256-4.74-.471-7.132-.183-2.056-1.069-3.969-1.625-5.955-.557-1.986-.731-4.257.406-5.987 1.194-1.836 3.481-2.551 5.561-3.25 4.684-1.511 5.585-3.887 5.407-8.623Z" fill="#3F3D56"/><path d="M234.063 219.15c.338-1.625.671-3.4.078-4.972-1.105-2.932-4.716-3.846-7.215-5.735-1.447-1.099-2.559-2.58-3.209-4.277-.455-1.19-.516-2.843.601-3.445.435-.203.916-.287 1.394-.243 3.891.089 7.458 2.205 10.443 4.707 1.735 1.459 3.384 3.128 4.249 5.22.614 1.483.813 3.099.988 4.691l.609 5.281c.402 3.027.637 6.074.703 9.127.004 1.75-.106 3.499-.329 5.236-.155 1.218-.407 2.502-1.109 3.513-1.349 1.881-3.941 2.303-6.256 2.368-.874.051-1.751-.005-2.612-.166-3.847-.837-6.763-6.223-3.855-9.55 1.219-1.413 3.095-1.45 3.798-3.387.943-2.567 1.17-5.675 1.722-8.368Z" fill="#FFC1C7"/><path d="m230.94 220.076 3.034 4.96c.182.257.307.548.37.857.085.646-.406 1.218-.78 1.742-2.616 3.575-1.95 8.49-1.162 12.848-4.175-1.324-7.892-3.796-10.727-7.135-2.835-3.338-4.672-7.407-5.302-11.741-.382-2.595-.999-6.868 1.304-8.558 5.549-4.07 10.659 2.778 13.263 7.027Z" fill="#2B9AB2"/><path d="M246.36 210.137c-1.186-.195-2.438 0-3.551-.512-1.933-.89-2.376-3.392-2.567-5.512 0-.195-.028-.406-.036-.638.692-.713 1.443-1.367 2.246-1.953.724-.424 1.494-.763 2.295-1.012l2.145-.755c.197.57.352 1.153.463 1.746.24 1.422.041 2.909.406 4.306.321 1.271 1.073 2.384 1.812 3.465l3.16 4.618c-.573-.134-1.141-.288-1.706-.451-1.093-1.657-2.73-2.989-4.667-3.302Z" fill="#3F3D56"/><path d="M43.4201 291.102c1.2187-2.238-.1625-4.984-1.7426-6.978-1.5802-1.995-3.4975-4.062-3.4569-6.617.0609-3.656 3.9403-5.813 7.0397-7.754 2.3014-1.437 4.4233-3.143 6.3206-5.082.7952-.745 1.4525-1.625 1.9417-2.599.6418-1.43.6256-3.055.585-4.619-.1381-5.215-.3968-10.426-.7759-15.634" stroke="#3F3D56" stroke-width="4" stroke-miterlimit="10"/><path d="M59.2258 241.535c-.0432-.955-.3264-1.883-.8234-2.7-.497-.816-1.1918-1.494-2.0201-1.971l-1.2755 2.526.0406-3.058c-.6101-.179-1.2456-.256-1.8808-.228-1.122.056-2.2024.443-3.1049 1.112-.9024.668-1.5866 1.59-1.9661 2.647-.3794 1.057-.4373 2.203-.1662 3.293.2711 1.09.859 2.076 1.6896 2.832.8305.757 1.8665 1.25 2.9772 1.418 1.1107.169 2.2464.004 3.2637-.472 1.0174-.476 1.8709-1.243 2.4528-2.204.582-.961.8663-2.073.8171-3.195h-.004ZM49.0583 280.119c-.598 1.159-1.5762 2.077-2.7707 2.601-1.1945.523-2.5327.62-3.7903.275-1.2576-.346-2.3582-1.113-3.1173-2.174-.7592-1.06-1.1307-2.349-1.0523-3.651.0783-1.302.6017-2.537 1.4826-3.499.8808-.962 2.0655-1.592 3.3554-1.784 1.29-.192 2.6069.064 3.73.728 1.1231.663 1.9841 1.691 2.4388 2.914l-3.5625 2.896 3.92-.906c-.0015.905-.2187 1.796-.6337 2.6ZM46.2432 269.05c-1.4165.1-2.8192-.333-3.9323-1.215-1.113-.882-1.8559-2.148-2.0825-3.55-.2266-1.402.0795-2.838.858-4.025.7786-1.188 1.9733-2.041 3.3492-2.392l-.0325 2.348 1.2917-2.555c.751-.039 1.5022.071 2.2101.325.708.253 1.3587.645 1.9144 1.151.5557.507 1.0054 1.119 1.3231 1.8.3177.682.4971 1.419.5278 2.171.0334.657-.0491 1.316-.2437 1.945-.347 1.119-1.0312 2.104-1.959 2.819-.9277.715-2.0538 1.127-3.2243 1.178ZM60.0829 259.858c-.8751.032-1.7459-.138-2.5443-.498-.7985-.359-1.5031-.898-2.059-1.575-.5558-.677-.9479-1.472-1.1457-2.325-.1977-.853-.1958-1.741.0056-2.593.2015-.852.597-1.646 1.1558-2.32.5588-.675 1.2658-1.211 2.0658-1.567.8-.356 1.6715-.522 2.5465-.486.8749.036 1.7298.273 2.4979.694l-1.0075 2.762 2.0717-1.991c1.1102 1.017 1.772 2.433 1.8402 3.936.027.528-.0209 1.058-.1422 1.572-.2814 1.208-.9502 2.291-1.9043 3.084-.9541.793-2.1413 1.252-3.3805 1.307Z" fill="#2B9AB2"/><path opacity=".1" d="M58.4581 243.054c-1.3161.142-2.5957.553-3.9158.634-1.3202.081-2.7704-.232-3.6072-1.259-.4468-.553-.6743-1.251-1.0521-1.857-.3608-.562-.8547-1.027-1.438-1.352-.344.719-.533 1.502-.5547 2.299-.0217.796.1242 1.589.4285 2.325.3042.737.76 1.402 1.3376 1.951.5776.549 1.2642.971 2.0153 1.237.7511.267 1.5499.373 2.3446.311.7946-.062 1.5674-.29 2.2682-.669.7008-.38 1.314-.903 1.7997-1.535.4857-.632.8332-1.359 1.0198-2.134-.2166.009-.4319.025-.6459.049ZM60.0828 259.858c-.9832.05-1.9626-.156-2.8422-.598-.8796-.442-1.6294-1.105-2.176-1.924-.5466-.819-.8712-1.766-.9421-2.747-.071-.982.1142-1.966.5374-2.855.4523.304.8414.693 1.1455 1.146.4062.613.654 1.324 1.1293 1.885.8896 1.043 2.4047 1.385 3.7818 1.324 1.3771-.061 2.7054-.455 4.0621-.581.1909 0 .3819-.029.5768-.033-.2823 1.205-.9499 2.285-1.9015 3.076-.9515.791-2.1351 1.25-3.3711 1.307ZM46.2431 269.05c-.9741.049-1.9445-.153-2.818-.587-.8734-.433-1.6206-1.085-2.1697-1.891-.5491-.806-.8816-1.74-.9657-2.711-.084-.972.0832-1.949.4858-2.837.473.309.8859.701 1.2186 1.157.4428.626.719 1.349 1.2186 1.926.9628 1.068 2.5795 1.446 4.0337 1.413 1.4543-.032 2.7745-.377 4.1759-.487-.3433 1.122-1.0253 2.11-1.9526 2.83-.9273.719-2.0543 1.134-3.2266 1.187ZM49.0583 280.119c-.6168 1.378-1.7559 2.455-3.1668 2.994-1.4108.538-2.9778.494-4.3563-.123-1.3784-.616-2.4554-1.755-2.994-3.166-.5386-1.411-.4947-2.978.1221-4.356.4706.308.8923.684 1.2511 1.117.5444.658.9018 1.409 1.5274 2.031 1.1658 1.145 3.0466 1.625 4.7242 1.661.9664.005 1.9322-.048 2.8923-.158Z" fill="#000"/><path d="M34.8206 288.523s4.5008-.138 5.8575-1.105c1.3568-.967 6.9056-2.116 7.255-.569.3493 1.548 6.7634 7.718 1.6858 7.742-5.0777.025-11.8046-.788-13.1613-1.625-1.3568-.836-1.637-4.443-1.637-4.443Z" fill="#656380"/><path opacity=".2" d="M49.7082 294.055c-5.0817.041-11.8045-.812-13.1572-1.625-1.0318-.629-1.442-2.88-1.5801-3.92h-.1503s.2843 3.632 1.6248 4.469c1.3405.836 8.0796 1.653 13.1613 1.624 1.4664 0 1.9701-.532 1.9417-1.304-.1909.455-.7515.744-1.8402.756Z" fill="#000"/><path d="M419.471 285.57c2.149-3.981-.288-8.859-3.095-12.413-2.807-3.554-6.223-7.247-6.15-11.78.105-6.499 7.007-10.345 12.519-13.79 4.093-2.557 7.868-5.593 11.244-9.042 1.357-1.381 2.665-2.843 3.457-4.622 1.141-2.543 1.109-5.435 1.036-8.221-.241-9.277-.7-18.547-1.377-27.808" stroke="#3F3D56" stroke-width="4" stroke-miterlimit="10"/><path d="M447.589 197.399c-.078-1.699-.582-3.351-1.467-4.803-.885-1.453-2.121-2.659-3.594-3.508l-2.271 4.493.069-5.439c-2.065-.611-4.271-.55-6.299.175-2.028.725-3.773 2.076-4.983 3.857-1.21 1.782-1.822 3.902-1.748 6.054.074 2.152.83 4.225 2.159 5.919 1.33 1.695 3.163 2.922 5.236 3.506 2.073.584 4.278.494 6.296-.257 2.019-.751 3.746-2.124 4.933-3.921 1.186-1.797 1.771-3.925 1.669-6.076ZM429.504 266.036c-1.064 2.073-2.808 3.718-4.941 4.657-2.133.94-4.524 1.117-6.772.502-2.248-.614-4.216-1.983-5.574-3.877-1.358-1.894-2.024-4.197-1.885-6.523.139-2.326 1.074-4.534 2.648-6.253 1.573-1.718 3.691-2.843 5.996-3.186 2.305-.343 4.658.118 6.664 1.304 2.005 1.186 3.542 3.027 4.352 5.212l-6.333 5.154 6.967-1.624c.003 1.612-.382 3.202-1.122 4.634ZM424.512 246.344c-2.479.098-4.909-.715-6.83-2.286-1.921-1.571-3.2-3.791-3.596-6.24-.396-2.45.119-4.96 1.447-7.056s3.378-3.633 5.762-4.321l-.053 4.18 2.295-4.546h.029c1.371-.134 2.754.011 4.067.428 1.313.417 2.527 1.097 3.569 1.998 1.042.901 1.889 2.005 2.491 3.244.602 1.238.945 2.587 1.01 3.963.064 1.375-.152 2.75-.636 4.04-.484 1.289-1.225 2.467-2.178 3.461-.953.994-2.099 1.784-3.367 2.322-1.268.537-2.632.811-4.01.805v.008ZM449.116 229.963c-1.574.083-3.146-.202-4.592-.832-1.445-.629-2.724-1.587-3.735-2.797-1.011-1.21-1.727-2.638-2.09-4.172-.363-1.535-.364-3.132-.003-4.667.361-1.535 1.075-2.964 2.085-4.175 1.009-1.211 2.287-2.17 3.732-2.802 1.444-.632 3.016-.918 4.591-.837 1.575.081 3.109.528 4.481 1.305l-1.792 4.91 3.689-3.537c.979.893 1.773 1.972 2.335 3.173.563 1.2.883 2.5.943 3.825.046.939-.042 1.88-.26 2.795-.506 2.143-1.694 4.064-3.387 5.473-1.692 1.409-3.797 2.229-5.997 2.338Z" fill="#2B9AB2"/><path opacity=".1" d="M446.224 200.1c-2.34.256-4.614.983-6.966 1.129-2.352.146-4.928-.406-6.414-2.242-.813-.983-1.219-2.226-1.877-3.302-.639-.999-1.516-1.823-2.551-2.401-.669 1.288-1.055 2.705-1.13 4.154-.076 1.45.16 2.899.692 4.249.532 1.351 1.348 2.572 2.392 3.581 1.044 1.009 2.291 1.782 3.66 2.268 1.368.485 2.824.672 4.27.547 1.446-.124 2.849-.558 4.114-1.271 1.264-.712 2.362-1.688 3.217-2.861.856-1.172 1.45-2.515 1.743-3.937-.386.017-.768.045-1.15.086ZM449.116 229.963c-1.747.079-3.485-.295-5.045-1.085-1.56-.791-2.89-1.97-3.86-3.425-.971-1.455-1.549-3.136-1.679-4.88-.13-1.744.193-3.492.937-5.074.802.539 1.491 1.229 2.031 2.03.723 1.093 1.158 2.352 2.031 3.352 1.576 1.86 4.277 2.465 6.723 2.355 2.445-.109 4.809-.812 7.251-1.031.337-.029.678-.053 1.019-.061-.505 2.148-1.697 4.074-3.394 5.485-1.698 1.411-3.809 2.23-6.014 2.334ZM424.512 246.344c-1.731.081-3.454-.282-5.005-1.056-1.551-.773-2.878-1.93-3.855-3.361-.977-1.431-1.572-3.089-1.728-4.815-.155-1.725.133-3.462.839-5.045.833.552 1.558 1.251 2.141 2.063.788 1.113 1.279 2.393 2.201 3.416 1.714 1.905 4.59 2.58 7.182 2.519 2.51-.057 4.927-.675 7.426-.865-.615 1.991-1.828 3.744-3.474 5.022-1.646 1.278-3.646 2.019-5.727 2.122ZM429.505 266.036c-1.215 2.261-3.241 3.978-5.67 4.807-2.429.828-5.082.705-7.425-.343s-4.202-2.945-5.203-5.308c-1.001-2.363-1.07-5.018-.193-7.43.835.548 1.585 1.216 2.226 1.982.962 1.178 1.6 2.511 2.713 3.607 2.076 2.031 5.423 2.872 8.401 2.949 1.72.013 3.44-.075 5.151-.264Z" fill="#000"/><path d="M404.177 280.98s8.003-.248 10.416-1.966c2.412-1.718 12.312-3.769 12.913-1.016.601 2.754 12.028 13.705 2.99 13.774-9.038.069-20.997-1.405-23.406-2.871-2.409-1.467-2.913-7.921-2.913-7.921Z" fill="#656380"/><path opacity=".2" d="M430.658 290.822c-9.038.073-20.997-1.406-23.406-2.872-1.832-1.117-2.563-5.126-2.811-6.974h-.264s.504 6.454 2.913 7.92c2.409 1.467 14.372 2.945 23.406 2.872 2.612-.02 3.509-.946 3.461-2.323-.362.845-1.357 1.365-3.299 1.377Z" fill="#000"/></g><defs><clipPath id="a"><path fill="#fff" d="M0 0h481v302H0z"/></clipPath></defs></svg>