<svg xmlns="http://www.w3.org/2000/svg" width="588" height="503" fill="none"><g clip-path="url(#a)"><g filter="url(#b)"><path d="M327.591 3.20484 273.894 359.153l256.698 38.736 53.696-355.9478L327.591 3.20484Z" fill="#F5F5F5"/></g><path d="m523.755 190.685-185.269-27.958-1.695 11.232 185.27 27.957 1.694-11.231ZM519.52 218.757 334.251 190.8l-1.694 11.231 185.269 27.958 1.694-11.232ZM537.305 100.84l-95.444-14.4023-1.694 11.2317 95.444 14.4026 1.694-11.232Z" fill="#E0E0E0"/><path d="m524.653 127.65-78.603-11.862-1.694 11.232 78.602 11.861 1.695-11.231Z" fill="#41C0EB"/><path d="m492.828 243.446-162.816-24.569-1.694 11.231 162.816 24.57 1.694-11.232ZM466.129 268.134l-140.356-21.18-1.695 11.231 140.357 21.181 1.694-11.232ZM445.053 293.668l-123.515-18.639-1.694 11.231 123.515 18.639 1.694-11.231ZM474.502 326.827l-157.199-23.722-1.694 11.232 157.198 23.722 1.695-11.232Z" fill="#E0E0E0"/><path d="m374.828 340.498-61.755-9.319-1.694 11.231 61.754 9.319 1.695-11.231Z" fill="#41C0EB"/><path opacity=".5" d="M423.771 101.886c.975-6.4704.259-13.083-2.079-19.1944-2.338-6.1113-6.219-11.5131-11.263-15.6797-5.045-4.1666-11.082-6.9561-17.524-8.0969-6.442-1.1408-13.07-.5942-19.239 1.5868-6.168 2.1809-11.667 5.9219-15.961 10.8588-4.294 4.9368-7.237 10.9015-8.542 17.3133-1.306 6.4119-.929 13.0521 1.092 19.2761 2.022 6.223 5.62 11.817 10.444 16.237v.168c1.045 1.364 2.35 2.507 3.84 3.362l.074-.161c1.526 1.769 8.553 5.293 17.045 6.55h.189c5.379.821 11.357.747 16.904-1.257 0 0 .061-.095.161-.269 1.394-.416 2.711-1.054 3.9-1.89l.121-.417c5.513-2.69 10.29-6.678 13.92-11.623 3.63-4.945 6.004-10.698 6.918-16.764Z" fill="url(#c)"/><path d="M422.479 100.336c3.029-20.078-10.79-38.8105-30.865-41.8399-20.075-3.0293-38.805 10.7915-41.834 30.8698-3.028 20.0781 10.79 38.8101 30.865 41.8401 20.075 3.029 38.805-10.792 41.834-30.87Z" fill="#F5F5F5"/><path d="M369.373 106.963s-8.741-.598-8.855 15.529c1.015 1.318 2.281 2.422 3.725 3.248l7.356-15.757-2.226-3.02ZM397.48 111.207s8.553 2.017 3.887 17.452c-1.358.965-2.894 1.65-4.519 2.017l-2.387-17.223 3.019-2.246Z" fill="#FDA57D"/><path d="M373.65 81.1658s-5.931 11.3722-8.008 9.9061c0 0 18.867 22.0111 40.848 6.1602-1.71-4.2843-3.926-8.3483-6.603-12.1052l-26.237-3.9611Z" fill="#333"/><path d="M403.869 84.5842c1.342-8.8988-4.782-17.2011-13.68-18.5437-8.897-1.3426-17.198 4.7828-18.541 13.6816-1.342 8.8987 4.783 17.201 13.68 18.5437 8.897 1.3426 17.198-4.7829 18.541-13.6816Z" fill="#333"/><path opacity=".1" d="m397.312 111.18-28.107-4.237-4.316 10.848s-2.327 4.97-.753 7.552c1.573 2.583 18.686 10.485 32.947 5.38 1.6-2.825 2.228-6.097 1.789-9.314-.706-5.474-.316-.431-.316-.431l-1.244-9.798Z" fill="#000"/><path opacity=".1" d="m397.688 111.241-28.106-4.237-4.31 10.841s-2.327 4.969-.753 7.552c1.573 2.582 18.686 10.484 32.948 5.38 1.599-2.825 2.228-6.097 1.788-9.314-.706-5.475-.316-.431-.316-.431l-1.251-9.791Z" fill="#000"/><path d="m397.48 111.207-28.107-4.237-4.316 10.848s-2.327 4.97-.754 7.552c1.574 2.582 18.687 10.484 32.948 5.38 1.6-2.825 2.228-6.097 1.789-9.314-.706-5.475-.316-.431-.316-.431l-1.244-9.798Z" fill="#FDD835"/><path opacity=".1" d="m379.393 98.9702 11.243 1.6968-1.531 10.148c-.179 1.187-.822 2.254-1.788 2.966-.965.713-2.175 1.013-3.361.834l-2.301-.347c-1.187-.18-2.254-.823-2.966-1.789-.713-.966-1.012-2.175-.833-3.362l1.53-10.1478.007.001Z" fill="#000"/><path d="m379.448 98.5535 11.243 1.6965-1.531 10.148c-.179 1.187-.822 2.254-1.788 2.967-.965.712-2.175 1.012-3.361.833l-2.294-.346c-1.187-.179-2.254-.823-2.967-1.788-.712-.966-1.012-2.176-.833-3.363l1.531-10.1475Z" fill="#FDA57D"/><path opacity=".1" d="M379.238 100.144c3.418 1.901 7.404 2.514 11.236 1.728l.208-1.378-11.242-1.6949-.202 1.3449Z" fill="#000"/><path d="M403.341 88.0793c1.342-8.8988-4.782-17.2011-13.679-18.5437-8.898-1.3427-17.199 4.7828-18.541 13.6816-1.343 8.8988 4.782 17.2008 13.679 18.5438 8.898 1.343 17.199-4.7829 18.541-13.6817Z" fill="#FDA57D"/><path d="m372.715 77.1912 30.729 4.6336s-.753-12.7777-12.486-13.7663c-11.734-.9886-18.243 9.1327-18.243 9.1327Z" fill="#333"/><path d="M373.049 82.8c.234-1.5535-.246-2.914-1.072-3.0387-.826-.1247-1.686 1.0337-1.92 2.5872-.235 1.5535.245 2.9139 1.071 3.0386.827.1247 1.686-1.0336 1.921-2.5871ZM404.527 87.5527c.235-1.5535-.245-2.914-1.071-3.0387-.827-.1247-1.686 1.0337-1.921 2.5872-.234 1.5535.246 2.9139 1.072 3.0386.826.1247 1.686-1.0336 1.92-2.5871Z" fill="#FDA57D"/><path opacity=".1" d="m372.668 77.6082 30.729 4.6336s-.753-12.7778-12.486-13.7664c-11.734-.9885-18.243 9.1328-18.243 9.1328Z" fill="#000"/><path opacity=".5" d="M263.938 52.3154.220703 94.9431 59.1096 459.376l263.7174-42.628-58.889-364.4326Z" fill="url(#d)"/><g filter="url(#e)"><path d="M259.972 54.4431 3.78906 96.4473 62.0154 451.682l256.1836-42.004-58.227-355.2349Z" fill="#F5F5F5"/></g><path d="M248.097 214.561 63.199 244.877l1.8373 11.209L249.934 225.77l-1.837-11.209ZM252.689 242.582 67.7913 272.898l1.8372 11.209 184.8985-30.316-1.838-11.209ZM233.407 124.899l-95.252 15.618 1.837 11.209 95.252-15.618-1.837-11.209Z" fill="#E0E0E0"/><path d="m229.592 154.299-78.445 12.862 1.838 11.209 78.445-12.862-1.838-11.209Z" fill="#41C0EB"/><path d="M234.874 274.276 72.3838 300.918l1.8373 11.209 162.4899-26.642-1.837-11.209ZM217.051 305.965 76.9751 328.932l1.8373 11.209 140.0756-22.967-1.837-11.209ZM204.836 336.745 81.5681 356.956l1.8373 11.209 123.2676-20.211-1.837-11.209ZM243.044 359.247 86.1611 384.97l1.8373 11.209 156.8836-25.722-1.838-11.21Z" fill="#E0E0E0"/><path d="m152.389 402.889-61.6305 10.105 1.8373 11.209 61.6302-10.105-1.837-11.209Z" fill="#41C0EB"/><path opacity=".5" d="M129.129 158.35c-1.089-6.638-3.877-12.881-8.094-18.121-4.217-5.241-9.719-9.3-15.969-11.783-6.2511-2.483-13.0381-3.306-19.7008-2.388-6.6628.919-12.9744 3.547-18.3205 7.628-5.3462 4.082-9.5448 9.478-12.1872 15.664-2.6425 6.186-3.6388 12.951-2.892 19.636.7469 6.685 3.2114 13.063 7.1537 18.513 3.9423 5.45 9.2282 9.786 15.3432 12.587l.0538.168c1.4531.998 3.0894 1.697 4.8144 2.058v-.181c2.0509 1.251 10.0391 2.481 18.7468 1.029h.1882c5.5204-.895 11.3434-2.859 16.1374-6.571 0 0 0-.107.068-.309 1.232-.847 2.32-1.887 3.22-3.08v-.444c4.555-4.376 7.977-9.796 9.969-15.79 1.993-5.994 2.497-12.383 1.469-18.616Z" fill="url(#f)"/><path d="M96.8057 201.938c20.5953-3.377 34.5543-22.813 31.1783-43.412-3.377-20.598-22.81-34.559-43.4051-31.183-20.5956 3.377-34.5545 22.813-31.1781 43.412 3.3763 20.599 22.8093 34.56 43.4049 31.183Z" fill="#F5F5F5"/><path d="M76.9369 181.881s-8.7413 2.186-3.7655 17.99c1.4088.975 2.9973 1.661 4.6732 2.018l2.2257-17.741-3.1334-2.267ZM105.77 177.154s9.003-.734 9.306 15.851c-1.028 1.359-2.315 2.502-3.786 3.362l-7.773-16.1 2.253-3.113Z" fill="#4D8AF0"/><path d="M89.7695 168.318c9.1287-1.497 15.3155-10.112 13.8195-19.242-1.497-9.13-10.1102-15.318-19.2389-13.822-9.1288 1.497-15.3159 10.112-13.8194 19.242 1.4966 9.13 10.11 15.319 19.2388 13.822Z" fill="#333"/><path d="m105.602 177.18-28.8331 4.708-.8002 11.978s-.6724 5.602 1.6474 7.626 21.5977 4.358 33.8959-5.165c.673-3.269.255-6.669-1.19-9.678-2.421-5.131-.451-.322-.451-.322l-4.269-9.147Z" fill="#4D8AF0"/><path d="m105.985 177.12-28.833 4.707-.8002 11.978s-.6724 5.602 1.6474 7.626c2.3198 2.025 21.5977 4.358 33.8958-5.165.673-3.269.255-6.669-1.19-9.677-2.421-5.131-.45-.323-.45-.323l-4.27-9.146Z" fill="#4D8AF0"/><path d="m105.77 177.154-28.8331 4.707-.8002 11.998s-.6724 5.602 1.6474 7.626 21.5977 4.358 33.8959-5.165c.673-3.269.255-6.669-1.19-9.677-2.421-5.132-.451-.323-.451-.323l-4.269-9.166Z" fill="#4D8AF0"/><path opacity=".1" d="m84.2215 170.854 11.5325-1.891 1.7263 10.532c.1942 1.185-.0901 2.398-.7903 3.373-.7002.975-1.7589 1.632-2.9433 1.826l-2.6077.427c-1.1844.195-2.3974-.09-3.3722-.79-.9748-.7-1.6315-1.759-1.8256-2.944l-1.7264-10.532.0067-.001Z" fill="#000"/><path d="m84.1526 170.427 11.5325-1.891 1.7264 10.532c.1941 1.185-.0901 2.398-.7903 3.373-.7002.975-1.759 1.631-2.9433 1.826l-2.6078.427c-1.1844.194-2.3974-.09-3.3721-.79-.9748-.701-1.6315-1.759-1.8257-2.944l-1.7263-10.532.0066-.001Z" fill="#FDA57D"/><path opacity=".1" d="M84.4342 172.09c3.9443.781 8.0381.123 11.5385-1.857l-.2354-1.419-11.5317 1.897.2286 1.379Z" fill="#000"/><path d="M90.3627 171.907c9.1287-1.497 15.3163-10.111 13.8193-19.242-1.496-9.13-10.1099-15.318-19.2387-13.821-9.1287 1.497-15.3158 10.111-13.8193 19.242 1.4965 9.13 10.11 15.318 19.2387 13.821Z" fill="#FDA57D"/><path opacity=".1" d="m70.8784 152.116 31.5296-5.165s-4.7812-12.294-16.5618-9.523c-11.7806 2.771-14.9678 14.688-14.9678 14.688Z" fill="#000"/><path d="m70.8044 151.692 31.5556-5.171s-4.7803-12.294-16.5609-9.523c-11.7806 2.771-14.9947 14.694-14.9947 14.694Z" fill="#333"/><path d="M72.0165 161.201c.8529-.138 1.3349-1.546 1.0764-3.146-.2585-1.599-1.1594-2.784-2.0124-2.646-.8529.137-1.3348 1.546-1.0764 3.145.2585 1.6 1.1595 2.785 2.0124 2.647ZM104.11 154.912c.85-.139 1.328-1.545 1.066-3.139-.261-1.594-1.162-2.774-2.012-2.635-.851.14-1.328 1.545-1.067 3.14.262 1.594 1.163 2.774 2.013 2.634Z" fill="#FDA57D"/><path opacity=".5" d="M456.423 111.281H190.042v368.114h266.381V111.281Z" fill="url(#g)"/><g filter="url(#h)"><path d="M453.034 113.991H193.431v359.977h259.603V113.991Z" fill="#fff"/></g><path opacity=".5" d="M228.101 196.354c.001-6.878 1.782-13.639 5.17-19.624 3.388-5.985 8.267-10.991 14.164-14.531 5.896-3.54 12.608-5.492 19.482-5.668 6.875-.175 13.678 1.432 19.747 4.666 6.069 3.234 11.198 7.985 14.887 13.789 3.689 5.805 5.813 12.466 6.164 19.335.352 6.868-1.08 13.711-4.157 19.863-3.077 6.151-7.694 11.4-13.401 15.237v.175c-1.301 1.249-2.837 2.227-4.518 2.879l-.054-.175c-1.863 1.6-9.716 4.163-18.74 4.136h-.195c-5.716 0-11.915-1.009-17.375-3.961 0 0-.047-.108-.121-.303-1.384-.65-2.653-1.52-3.759-2.576l-.06-.45c-5.316-3.659-9.662-8.556-12.665-14.269-3.002-5.712-4.57-12.069-4.569-18.523Z" fill="url(#i)"/><path d="M267.928 234.996c21.338 0 38.636-17.3 38.636-38.642 0-21.342-17.298-38.643-38.636-38.643-21.339 0-38.637 17.301-38.637 38.643 0 21.342 17.298 38.642 38.637 38.642Z" fill="#F5F5F5"/><path d="M252.771 211.075s-9.205.747-6.771 17.56c1.263 1.211 2.753 2.159 4.384 2.79l5.178-17.532-2.791-2.818ZM282.646 211.075s9.206.747 6.771 17.56c-1.262 1.211-2.752 2.159-4.384 2.79l-5.157-17.586 2.77-2.764Z" fill="#BE7C5E"/><path d="M253.168 183.576s-.706 2.065-1.715 4.452c-2.192 5.219.31 25.273 5.554 27.412 5.884 2.401 13.623 3.934 21.659 1.002 6.986-2.549 9.138-25.374 4.202-30.936-.578-.672-1.183-1.298-1.815-1.93h-27.885Z" fill="#333"/><path d="M267.954 199.515c9.459 0 17.127-7.669 17.127-17.129s-7.668-17.129-17.127-17.129c-9.458 0-17.126 7.669-17.126 17.129s7.668 17.129 17.126 17.129Z" fill="#333"/><path opacity=".1" d="M282.472 211.075h-29.875l-2.791 11.951s-1.641 5.535.397 7.969c2.037 2.435 21.066 7.969 35.052.397 1.219-3.187 1.358-6.686.397-9.96-1.593-5.575-.397-.397-.397-.397l-2.783-9.96Z" fill="#000"/><path opacity=".1" d="M282.868 211.075H252.98l-2.791 11.951s-1.641 5.535.397 7.969c2.037 2.435 21.066 7.969 35.052.397 1.219-3.187 1.358-6.686.397-9.96-1.593-5.575-.397-.397-.397-.397l-2.77-9.96Z" fill="#000"/><path d="M282.646 211.075h-29.875l-2.79 11.951s-1.641 5.535.397 7.969c2.037 2.435 21.066 7.969 35.052.397 1.219-3.187 1.358-6.686.397-9.96-1.594-5.575-.397-.397-.397-.397l-2.784-9.96Z" fill="#3AD29F"/><path opacity=".1" d="M261.936 201.156h11.949v11.015c0 1.201-.477 2.352-1.326 3.201-.848.848-1.999 1.325-3.199 1.325h-2.905c-1.2 0-2.351-.477-3.2-1.325-.849-.849-1.326-2-1.326-3.201v-11.015h.007Z" fill="#000"/><path d="M261.936 200.712h11.949v11.015c0 1.201-.477 2.352-1.326 3.201-.848.849-1.999 1.325-3.199 1.325h-2.905c-1.2 0-2.351-.476-3.2-1.325-.849-.849-1.326-2-1.326-3.201v-11.015h.007Z" fill="#BE7C5E"/><path opacity=".1" d="M261.956 202.407c3.855 1.428 8.094 1.428 11.949 0v-1.467h-11.949v1.467Z" fill="#000"/><path d="M267.954 203.234c9.459 0 17.127-7.669 17.127-17.129s-7.668-17.129-17.127-17.129c-9.458 0-17.126 7.669-17.126 17.129s7.668 17.129 17.126 17.129Z" fill="#BE7C5E"/><path d="M251.574 179.602h32.666s-2.79-13.195-15.136-12.348c-12.345.848-17.53 12.348-17.53 12.348Z" fill="#333"/><path d="M251.184 188.365c.881 0 1.594-1.337 1.594-2.986 0-1.65-.713-2.986-1.594-2.986-.88 0-1.593 1.336-1.593 2.986 0 1.649.713 2.986 1.593 2.986ZM284.643 188.365c.881 0 1.594-1.337 1.594-2.986 0-1.65-.713-2.986-1.594-2.986-.88 0-1.593 1.336-1.593 2.986 0 1.649.713 2.986 1.593 2.986Z" fill="#BE7C5E"/><path opacity=".1" d="M251.574 180.039h32.666s-2.79-13.195-15.136-12.348c-12.345.848-17.53 12.348-17.53 12.348Z" fill="#000"/><path d="M415.413 270.082H228.047v11.358h187.366v-11.358ZM415.413 298.475H228.047v11.359h187.366v-11.359ZM415.42 179.225h-96.524v11.359h96.524v-11.359Z" fill="#E0E0E0"/><path d="M406.901 207.618h-79.492v11.359h79.492v-11.359Z" fill="#41C0EB"/><path d="M392.706 326.869H228.047v11.358h164.659v-11.358ZM369.992 355.262H228.047v11.359h141.945v-11.359ZM352.96 383.662H228.047v11.359H352.96v-11.359ZM387.024 412.056H228.047v11.359h158.977v-11.359Z" fill="#E0E0E0"/><path d="M290.5 440.449h-62.453v11.359H290.5v-11.359Z" fill="#41C0EB"/><path opacity=".5" d="M438.457 503.007c31.339 0 56.744-25.41 56.744-56.754 0-31.344-25.405-56.753-56.744-56.753s-56.745 25.409-56.745 56.753 25.406 56.754 56.745 56.754Z" fill="url(#j)"/><g filter="url(#k)"><path d="M438.498 492.99c19.692 0 35.655-15.966 35.655-35.66 0-19.695-15.963-35.661-35.655-35.661s-35.655 15.966-35.655 35.661c0 19.694 15.963 35.66 35.655 35.66Z" fill="#2B9AB2"/></g><path d="m423.329 452.698 13.134 12.585 18.608-28.599 6.571 5.721-25.179 34.319-18.608-21.735 5.474-2.291Z" fill="#fff"/></g><defs><linearGradient id="c" x1="44413.3" y1="55758" x2="45699.8" y2="47232.3" gradientUnits="userSpaceOnUse"><stop stop-color="gray" stop-opacity=".25"/><stop offset=".54" stop-color="gray" stop-opacity=".12"/><stop offset="1" stop-color="gray" stop-opacity=".1"/></linearGradient><linearGradient id="d" x1="147954" y1="120176" x2="115710" y2="-79301.9" gradientUnits="userSpaceOnUse"><stop stop-color="gray" stop-opacity=".25"/><stop offset=".54" stop-color="gray" stop-opacity=".12"/><stop offset="1" stop-color="gray" stop-opacity=".1"/></linearGradient><linearGradient id="f" x1="30524.1" y1="-3006.83" x2="29054.8" y2="-11968.2" gradientUnits="userSpaceOnUse"><stop stop-color="gray" stop-opacity=".25"/><stop offset=".54" stop-color="gray" stop-opacity=".12"/><stop offset="1" stop-color="gray" stop-opacity=".1"/></linearGradient><linearGradient id="g" x1="128242" y1="262518" x2="128242" y2="61023.1" gradientUnits="userSpaceOnUse"><stop stop-color="gray" stop-opacity=".25"/><stop offset=".54" stop-color="gray" stop-opacity=".12"/><stop offset="1" stop-color="gray" stop-opacity=".1"/></linearGradient><linearGradient id="i" x1="40471.9" y1="34329.3" x2="40471.9" y2="24831.1" gradientUnits="userSpaceOnUse"><stop stop-color="gray" stop-opacity=".25"/><stop offset=".54" stop-color="gray" stop-opacity=".12"/><stop offset="1" stop-color="gray" stop-opacity=".1"/></linearGradient><linearGradient id="j" x1="74384.5" y1="85285.8" x2="74384.5" y2="66129.3" gradientUnits="userSpaceOnUse"><stop stop-color="gray" stop-opacity=".25"/><stop offset=".54" stop-color="gray" stop-opacity=".12"/><stop offset="1" stop-color="gray" stop-opacity=".1"/></linearGradient><filter id="b" x="263.894" y="-2.79517" width="330.394" height="414.684" filterUnits="userSpaceOnUse" color-interpolation-filters="sRGB"><feFlood flood-opacity="0" result="BackgroundImageFix"/><feColorMatrix in="SourceAlpha" values="0 0 0 0 0 0 0 0 0 0 0 0 0 0 0 0 0 0 127 0"/><feOffset dy="4"/><feGaussianBlur stdDeviation="5"/><feColorMatrix values="0 0 0 0 0 0 0 0 0 0 0 0 0 0 0 0 0 0 0.05 0"/><feBlend in2="BackgroundImageFix" result="effect1_dropShadow"/><feBlend in="SourceGraphic" in2="effect1_dropShadow" result="shape"/></filter><filter id="e" x="-6.21094" y="48.4431" width="334.41" height="417.239" filterUnits="userSpaceOnUse" color-interpolation-filters="sRGB"><feFlood flood-opacity="0" result="BackgroundImageFix"/><feColorMatrix in="SourceAlpha" values="0 0 0 0 0 0 0 0 0 0 0 0 0 0 0 0 0 0 127 0"/><feOffset dy="4"/><feGaussianBlur stdDeviation="5"/><feColorMatrix values="0 0 0 0 0 0 0 0 0 0 0 0 0 0 0 0 0 0 0.05 0"/><feBlend in2="BackgroundImageFix" result="effect1_dropShadow"/><feBlend in="SourceGraphic" in2="effect1_dropShadow" result="shape"/></filter><filter id="h" x="183.431" y="107.991" width="279.603" height="379.976" filterUnits="userSpaceOnUse" color-interpolation-filters="sRGB"><feFlood flood-opacity="0" result="BackgroundImageFix"/><feColorMatrix in="SourceAlpha" values="0 0 0 0 0 0 0 0 0 0 0 0 0 0 0 0 0 0 127 0"/><feOffset dy="4"/><feGaussianBlur stdDeviation="5"/><feColorMatrix values="0 0 0 0 0 0 0 0 0 0 0 0 0 0 0 0 0 0 0.05 0"/><feBlend in2="BackgroundImageFix" result="effect1_dropShadow"/><feBlend in="SourceGraphic" in2="effect1_dropShadow" result="shape"/></filter><filter id="k" x="392.843" y="415.669" width="91.3106" height="91.3209" filterUnits="userSpaceOnUse" color-interpolation-filters="sRGB"><feFlood flood-opacity="0" result="BackgroundImageFix"/><feColorMatrix in="SourceAlpha" values="0 0 0 0 0 0 0 0 0 0 0 0 0 0 0 0 0 0 127 0"/><feOffset dy="4"/><feGaussianBlur stdDeviation="5"/><feColorMatrix values="0 0 0 0 0 0 0 0 0 0 0 0 0 0 0 0 0 0 0.05 0"/><feBlend in2="BackgroundImageFix" result="effect1_dropShadow"/><feBlend in="SourceGraphic" in2="effect1_dropShadow" result="shape"/></filter><clipPath id="a"><path fill="#fff" d="M0 0h588v503H0z"/></clipPath></defs></svg>