<svg width="481" height="302" viewBox="0 0 481 302" fill="none" 
  xmlns="http://www.w3.org/2000/svg">
  <g clip-path="url(#clip0)">
    <path d="M90.7559 202.391L88.2008 200.803C87.9571 200.652 87.7175 200.49 87.4737 200.335C92.9116 199.4 97.8696 196.643 101.533 192.517C105.197 188.392 107.349 183.143 107.634 177.633C107.92 172.123 106.324 166.679 103.106 162.197C99.8893 157.714 95.2432 154.459 89.9313 152.966L90.0572 162.982L84.5531 152.084H84.484C78.043 151.786 71.7469 154.057 66.9799 158.398C62.213 162.74 59.3654 168.797 59.0632 175.237C59.0389 175.704 59.0632 176.159 59.0632 176.618C57.15 174.433 55.4073 172.089 54.2578 169.522C51.9302 164.327 51.8855 158.441 52.0683 151.284C52.4339 137.108 53.0472 122.819 53.8434 108.578C59.5911 107.938 64.9225 105.27 68.8803 101.054C72.8381 96.837 75.163 91.3477 75.4377 85.5714C75.4702 84.828 75.458 84.0969 75.4377 83.3658C75.4377 83.183 75.4377 83.0043 75.4092 82.8215C75.3605 82.1147 75.2955 81.4161 75.1858 80.7256C75.1858 80.6118 75.1452 80.5022 75.1249 80.3925C75.0274 79.8076 74.9055 79.2308 74.7674 78.6621C74.7146 78.4468 74.6618 78.2356 74.6049 78.0244C74.4343 77.4029 74.2475 76.8059 74.0281 76.1884C73.955 75.9894 73.8737 75.7823 73.7925 75.5954C73.6219 75.1527 73.435 74.714 73.236 74.2834C73.1304 74.056 73.0288 73.8285 72.9191 73.6051C72.8867 73.5482 72.8663 73.4873 72.8338 73.4304C70.2664 68.363 66.005 64.3549 60.7898 62.1021C55.5746 59.8493 49.735 59.4943 44.2852 61.0986L44.4477 74.1372L39.0045 63.3651C34.5324 65.9282 30.9957 69.8522 28.9097 74.5655C26.8236 79.2787 26.2972 84.5349 27.4071 89.5682H27.3584C27.3949 89.7429 27.4477 89.9094 27.4884 90.08C27.5655 90.4009 27.6468 90.7178 27.7362 91.0346C27.854 91.4408 27.9799 91.847 28.1139 92.2531C28.2155 92.5537 28.313 92.8502 28.4267 93.1468C28.5933 93.5773 28.7801 93.9957 28.967 94.4141C29.0767 94.6578 29.1741 94.9096 29.2919 95.1493C29.6007 95.7775 29.9365 96.3908 30.2994 96.9893C30.4253 97.2005 30.5675 97.3955 30.7056 97.6026C30.9655 98.0088 31.2255 98.415 31.518 98.7928C31.6927 99.0324 31.8795 99.2639 32.0623 99.4955C32.3304 99.8326 32.6026 100.166 32.8747 100.487C33.0738 100.718 33.2809 100.941 33.4881 101.161C33.7887 101.478 34.0934 101.782 34.4102 102.079C34.6215 102.278 34.8164 102.485 35.048 102.672C35.4054 102.993 35.7792 103.293 36.1569 103.59C36.3479 103.74 36.5347 103.894 36.7297 104.041C37.3065 104.447 37.8996 104.853 38.513 105.259C38.6267 105.328 38.7526 105.385 38.8664 105.454C39.3823 105.755 39.9022 106.043 40.4384 106.303C40.67 106.417 40.9056 106.518 41.1412 106.624C41.5799 106.819 42.0226 107.01 42.4776 107.185L43.29 107.469C43.7369 107.619 44.1918 107.761 44.6508 107.875C44.9189 107.948 45.1911 108.025 45.4633 108.09C45.9588 108.208 46.4666 108.306 46.9784 108.395L47.0759 108.415C46.7428 114.424 46.4449 120.434 46.1823 126.446C44.7335 123.469 42.6916 120.819 40.1821 118.66C37.6725 116.5 34.7481 114.876 31.5884 113.887C28.4286 112.898 25.1001 112.566 21.807 112.909C18.5139 113.253 15.3258 114.265 12.4382 115.885L16.7359 127.665L7.89269 119.175C5.54176 121.321 3.63651 123.908 2.28576 126.79C0.935003 129.672 0.165194 132.792 0.0202924 135.971C-0.0925606 138.222 0.115336 140.477 0.637735 142.669C1.74971 147.411 4.26096 151.71 7.84584 155.008C11.4307 158.306 15.9238 160.451 20.7425 161.165C25.5612 161.878 30.4832 161.128 34.8701 159.01C39.257 156.893 42.9066 153.506 45.3455 149.29C45.3455 149.899 45.3048 150.508 45.2886 151.122C45.1261 157.434 44.923 165.29 48.0711 172.304C50.2038 177.057 53.6322 180.92 57.0078 184.38C59.2135 186.631 61.5005 188.812 63.8444 190.92C66.152 194.018 69.1619 196.523 72.6267 198.231C76.4776 201.197 80.4666 203.987 84.5896 206.562L87.165 208.163C89.4804 209.596 91.8527 211.071 94.1762 212.602C93.77 212.562 93.3638 212.517 92.9576 212.497C87.8024 212.257 82.7044 213.662 78.4006 216.509C74.0967 219.357 70.81 223.5 69.0154 228.338L84.2078 240.698L67.4962 236.823C67.5039 240.936 68.5542 244.98 70.5491 248.576C72.5439 252.173 75.4181 255.205 78.903 257.389C82.3879 259.574 86.3698 260.839 90.4765 261.067C94.5832 261.295 98.6806 260.478 102.386 258.692L101.257 260.094C100.509 261.022 99.7711 261.946 99.0426 262.864C89.1554 275.387 86.4054 287.272 91.3002 296.334L97.2553 293.121C92.4904 284.298 99.656 273.006 104.352 267.06C105.067 266.158 105.793 265.251 106.529 264.338C112.846 256.491 120.003 247.595 119.829 236.685C119.552 220.239 103.604 210.344 90.7559 202.391Z" fill="#F2F2F2"/>
    <path d="M367.768 177.508L370.953 175.526C371.258 175.335 371.554 175.119 371.859 174.941C365.044 173.774 358.832 170.314 354.252 165.135C349.672 159.957 346.998 153.369 346.674 146.463C346.443 141.717 347.341 136.984 349.294 132.653C351.115 128.595 353.806 124.986 357.175 122.082C360.544 119.177 364.51 117.048 368.792 115.845L368.634 128.343L375.503 114.748H375.584C383.622 114.374 391.479 117.208 397.427 122.626C403.376 128.044 406.929 135.603 407.305 143.64C407.333 144.221 407.305 144.789 407.305 145.362C409.698 142.637 411.867 139.712 413.301 136.511C416.209 130.012 416.266 122.701 416.034 113.765C415.579 96.0755 414.816 78.252 413.821 60.4854C406.649 59.6875 399.997 56.359 395.06 51.0977C390.122 45.8365 387.222 38.9872 386.881 31.7802C386.84 30.854 386.852 29.9401 386.881 29.0303C386.881 28.8028 386.893 28.5753 386.917 28.3479C386.974 27.4664 387.059 26.5931 387.189 25.7361C387.21 25.5939 387.246 25.4558 387.266 25.3299C387.391 24.5988 387.541 23.8785 387.717 23.169C387.782 22.905 387.847 22.6369 387.916 22.3566C388.132 21.5849 388.363 20.8172 388.635 20.0698C388.725 19.8179 388.83 19.5783 388.928 19.3305C389.147 18.774 389.379 18.2298 389.627 17.7058C389.757 17.4255 389.882 17.1412 390.033 16.8609C390.065 16.7919 390.098 16.7147 390.134 16.6456C393.335 10.3211 398.651 5.31842 405.158 2.50796C411.666 -0.302496 418.952 -0.742912 425.751 1.26333L425.548 17.5108L432.34 4.07414C437.92 7.26993 442.334 12.1653 444.936 18.046C447.538 23.9267 448.193 30.485 446.805 36.7641H446.842C446.793 36.9793 446.724 37.1703 446.675 37.4018C446.578 37.808 446.476 38.2142 446.366 38.5919C446.224 39.0996 446.062 39.5952 445.895 40.0907C445.769 40.4644 445.647 40.8381 445.489 41.2078C445.282 41.7439 445.05 42.2679 444.815 42.7878C444.676 43.0925 444.555 43.4052 444.408 43.7058C444.022 44.4897 443.596 45.2574 443.153 46.0008C442.999 46.2648 442.82 46.5126 442.654 46.7685C442.329 47.2721 442 47.7677 441.646 48.251C441.427 48.5516 441.195 48.8359 440.968 49.1284C440.635 49.5346 440.297 49.9651 439.94 50.3673C439.694 50.6381 439.438 50.9183 439.172 51.2081C438.803 51.6143 438.417 51.9798 438.027 52.3495C437.763 52.6013 437.503 52.8531 437.214 53.0928C436.763 53.499 436.3 53.8645 435.825 54.2342C435.589 54.421 435.358 54.62 435.114 54.7988C434.395 55.3268 433.656 55.8305 432.888 56.2976C432.746 56.3829 432.592 56.456 432.445 56.5413C431.806 56.9204 431.154 57.2738 430.487 57.6015C430.199 57.7436 429.903 57.8655 429.61 58.0076C429.062 58.2554 428.509 58.491 427.945 58.7063C427.611 58.8322 427.278 58.95 426.945 59.0637C426.385 59.2546 425.82 59.4252 425.247 59.5836C424.91 59.6771 424.573 59.7705 424.228 59.8558C423.606 60.002 422.977 60.1239 422.339 60.2335L422.213 60.2579C422.635 67.7561 423.008 75.2557 423.33 82.7566C425.138 79.0428 427.686 75.7376 430.817 73.044C433.949 70.3505 437.598 68.3253 441.54 67.0929C445.483 65.8604 449.635 65.4468 453.743 65.8772C457.852 66.3077 461.828 67.5732 465.43 69.5962L460.072 84.2839L471.101 73.6946C474.041 76.3631 476.426 79.5847 478.12 83.1754C479.815 86.7662 480.785 90.6555 480.976 94.6213C481.117 97.4287 480.859 100.242 480.208 102.977C478.821 108.894 475.688 114.258 471.215 118.373C466.742 122.488 461.136 125.164 455.124 126.055C449.112 126.945 442.97 126.009 437.497 123.367C432.023 120.725 427.47 116.5 424.427 111.238C424.427 111.998 424.48 112.766 424.5 113.525C424.703 121.401 424.955 131.203 421.031 139.952C418.37 145.886 414.089 150.7 409.856 155.017C407.102 157.828 404.258 160.548 401.325 163.178C398.442 167.04 394.683 170.162 390.358 172.288C385.552 175.989 380.576 179.47 375.434 182.687L372.22 184.681C369.332 186.468 366.375 188.308 363.471 190.217C363.982 190.169 364.486 190.112 365.006 190.087C371.433 189.791 377.788 191.544 383.154 195.093C388.519 198.643 392.618 203.806 394.859 209.836L375.905 225.271L396.756 220.442C396.748 225.571 395.441 230.615 392.956 235.103C390.472 239.59 386.89 243.375 382.546 246.103C378.202 248.832 373.237 250.415 368.116 250.705C362.994 250.995 357.883 249.982 353.258 247.762C353.73 248.347 354.197 248.932 354.668 249.513C355.598 250.67 356.528 251.824 357.434 252.969C369.767 268.587 373.199 283.433 367.09 294.725L359.664 290.716C365.607 279.709 356.667 265.622 350.805 258.221C349.915 257.096 349.005 255.963 348.091 254.826C340.211 245.036 331.278 233.939 331.498 220.328C331.839 199.771 351.759 187.427 367.768 177.508Z" fill="#F2F2F2"/>
    <path d="M237.35 302C352.663 302 446.143 296.999 446.143 290.83C446.143 284.661 352.663 279.66 237.35 279.66C122.036 279.66 28.5566 284.661 28.5566 290.83C28.5566 296.999 122.036 302 237.35 302Z" fill="#3F3D56"/>
    <path opacity="0.2" d="M236.944 296.313C340.142 296.313 423.801 292.313 423.801 287.377C423.801 282.442 340.142 278.441 236.944 278.441C133.745 278.441 50.0859 282.442 50.0859 287.377C50.0859 292.313 133.745 296.313 236.944 296.313Z" fill="black"/>
    <path d="M414.861 70.3556V285.042C414.861 285.818 414.552 286.563 414.003 287.113C413.454 287.662 412.709 287.97 411.932 287.97H62.7558C62.3714 287.97 61.9907 287.895 61.6356 287.747C61.2805 287.6 60.9579 287.384 60.6863 287.112C60.4146 286.84 60.1993 286.517 60.0525 286.162C59.9058 285.807 59.8305 285.426 59.8311 285.042V70.3556C59.8305 69.9712 59.9058 69.5905 60.0525 69.2352C60.1993 68.8799 60.4146 68.557 60.6863 68.285C60.9579 68.013 61.2805 67.7973 61.6356 67.65C61.9907 67.5028 62.3714 67.427 62.7558 67.427H411.92C412.305 67.4254 412.687 67.5 413.044 67.6464C413.401 67.7929 413.725 68.0084 413.999 68.2805C414.272 68.5526 414.489 68.876 414.637 69.2321C414.785 69.5882 414.861 69.97 414.861 70.3556Z" fill="#F1F8F8"/>
    <path d="M414.861 69.3808V75.9569H59.8311V69.3808C59.8311 68.8626 60.0369 68.3656 60.4033 67.9992C60.7698 67.6328 61.2667 67.427 61.7849 67.427H412.907C413.425 67.427 413.922 67.6328 414.288 67.9992C414.655 68.3656 414.861 68.8626 414.861 69.3808Z" fill="#CBCEDA"/>
    <path d="M66.3304 73.5199C67.4521 73.5199 68.3614 72.6106 68.3614 71.4889C68.3614 70.3673 67.4521 69.458 66.3304 69.458C65.2087 69.458 64.2993 70.3673 64.2993 71.4889C64.2993 72.6106 65.2087 73.5199 66.3304 73.5199Z" fill="#2B9AB2"/>
    <path d="M72.0174 73.5199C73.1391 73.5199 74.0484 72.6106 74.0484 71.4889C74.0484 70.3673 73.1391 69.458 72.0174 69.458C70.8957 69.458 69.9863 70.3673 69.9863 71.4889C69.9863 72.6106 70.8957 73.5199 72.0174 73.5199Z" fill="#2B9AB2"/>
    <path d="M77.7044 73.5199C78.8261 73.5199 79.7355 72.6106 79.7355 71.4889C79.7355 70.3673 78.8261 69.458 77.7044 69.458C76.5827 69.458 75.6733 70.3673 75.6733 71.4889C75.6733 72.6106 76.5827 73.5199 77.7044 73.5199Z" fill="#2B9AB2"/>
    <path opacity="0.2" d="M291.376 97.2817H183.323V102.968H291.376V97.2817Z" fill="#2B9AB2"/>
    <path opacity="0.2" d="M176.824 154.96H93.5508V252.445H176.824V154.96Z" fill="#2B9AB2"/>
    <path opacity="0.2" d="M278.784 154.96H195.51V252.445H278.784V154.96Z" fill="#2B9AB2"/>
    <path opacity="0.2" d="M297.469 252.445H380.743V154.96H297.469V252.445Z" fill="#2B9AB2"/>
    <path d="M131.462 204.507C131.215 205.973 129.764 206.895 128.396 207.468C127.027 208.041 125.495 208.516 124.618 209.714C123.436 211.339 123.931 213.667 125.024 215.352C126.263 217.286 128.14 218.711 129.976 220.092C130.771 220.766 131.679 221.295 132.657 221.656C133.402 221.847 134.171 221.929 134.94 221.9C137.415 221.899 139.885 221.678 142.32 221.238C145.444 220.669 148.783 219.532 150.445 216.819C151.793 214.597 151.708 211.823 151.578 209.223C150.108 209.097 148.791 208.297 147.54 207.521C146.062 206.603 144.465 205.535 143.986 203.865C143.482 202.115 144.287 199.954 143.088 198.585C142.276 197.659 140.899 197.549 139.672 197.517C138.007 197.473 136.342 197.45 134.68 197.448C133.534 197.448 130.975 196.968 130.033 197.732C128.298 199.117 131.775 202.647 131.462 204.507Z" fill="#A0616A"/>
    <path opacity="0.1" d="M131.462 204.507C131.215 205.973 129.764 206.895 128.396 207.468C127.027 208.041 125.495 208.516 124.618 209.714C123.436 211.339 123.931 213.667 125.024 215.352C126.263 217.286 128.14 218.711 129.976 220.092C130.771 220.766 131.679 221.295 132.657 221.656C133.402 221.847 134.171 221.929 134.94 221.9C137.415 221.899 139.885 221.678 142.32 221.238C145.444 220.669 148.783 219.532 150.445 216.819C151.793 214.597 151.708 211.823 151.578 209.223C150.108 209.097 148.791 208.297 147.54 207.521C146.062 206.603 144.465 205.535 143.986 203.865C143.482 202.115 144.287 199.954 143.088 198.585C142.276 197.659 140.899 197.549 139.672 197.517C138.007 197.473 136.342 197.45 134.68 197.448C133.534 197.448 130.975 196.968 130.033 197.732C128.298 199.117 131.775 202.647 131.462 204.507Z" fill="black"/>
    <path d="M137.137 203.67C143.717 203.67 149.052 198.336 149.052 191.757C149.052 185.177 143.717 179.843 137.137 179.843C130.557 179.843 125.223 185.177 125.223 191.757C125.223 198.336 130.557 203.67 137.137 203.67Z" fill="#A0616A"/>
    <path d="M162.034 220.669C161.956 221.386 161.727 222.078 161.364 222.7C161.256 222.867 161.133 223.025 160.998 223.171C160.328 223.907 159.373 224.39 158.508 224.906C156.071 226.388 153.337 228.318 152.882 231.141C152.732 232.019 152.527 232.887 152.269 233.74C151.7 235.674 150.957 237.575 150.522 239.508C150.251 240.629 150.13 241.78 150.16 242.932C150.174 243.293 150.207 243.652 150.258 244.009C150.644 246.746 152.049 249.204 153.703 251.539C153.881 251.791 154.06 252.043 154.243 252.291L154.361 252.449H115.47C115.535 252.202 115.6 251.958 115.661 251.71C115.668 251.672 115.678 251.634 115.689 251.596C116.075 250.049 116.412 248.493 116.648 246.925C116.868 245.533 116.989 244.127 117.009 242.717C117.009 241.498 117.277 240.15 118.297 239.468C118.366 239.22 118.431 238.968 118.496 238.72C119.395 235.031 119.376 231.177 118.439 227.497C118.382 227.27 118.317 227.042 118.256 226.815C118.228 226.713 118.196 226.612 118.167 226.51C117.824 225.428 117.537 224.328 117.306 223.216C117.066 221.888 117.013 220.474 116.307 219.329C115.6 218.183 114.369 217.513 113.276 216.737C112.74 216.372 112.257 215.933 111.842 215.433C111.39 214.91 111.119 214.255 111.071 213.565C111.063 213.361 111.078 213.157 111.115 212.956C111.316 212.118 111.745 211.352 112.354 210.742C114.824 208.025 118.598 206.883 122.306 206.834C122.879 206.834 123.448 206.834 124.012 206.883C124.673 206.894 125.324 207.04 125.926 207.314C126.297 207.505 126.622 207.774 126.88 208.102C127.244 208.559 127.519 209.08 127.693 209.637C127.839 210.085 127.948 210.544 128.018 211.01C128.245 212.46 128.294 214.004 129.058 215.255C130.443 217.521 133.599 217.936 136.207 217.444C138.535 216.987 140.733 216.022 142.645 214.618C144.557 213.213 146.135 211.405 147.268 209.32C147.511 208.814 147.782 208.322 148.081 207.846C148.239 207.607 148.424 207.388 148.633 207.192C152.246 207.857 155.643 209.391 158.532 211.66C159.438 212.344 160.23 213.167 160.88 214.097C162.099 216.022 162.375 218.427 162.034 220.669Z" fill="#F2F2F2"/>
    <path d="M163.253 245.199C162.924 246.334 162.421 247.411 161.762 248.392C161.327 249.225 160.743 249.971 160.04 250.593C158.598 251.726 156.603 251.702 154.759 251.596H154.613L153.699 251.544L148.454 251.231C147.065 251.181 145.68 251.033 144.311 250.788C143.945 250.715 143.584 250.626 143.222 250.528C141.191 249.984 139.205 249.171 137.105 249.054C136.496 249.017 135.886 249.054 135.265 249.054H135.094C134.687 249.054 134.279 249.027 133.875 248.972C133.209 248.875 132.555 248.664 131.877 248.631C130.138 248.542 128.603 249.586 127.12 250.536L126.714 250.788C125.653 251.46 124.526 252.021 123.351 252.462H116.307C116.188 252.371 116.077 252.269 115.978 252.157C115.857 252.024 115.751 251.878 115.661 251.722C115.641 251.686 115.62 251.649 115.604 251.613C115.375 251.122 115.257 250.588 115.257 250.047C115.257 249.506 115.375 248.971 115.604 248.481C115.866 247.917 116.213 247.397 116.632 246.937C117.093 246.437 117.59 245.97 118.119 245.54C120.856 243.257 124.005 241.332 127.506 240.666C127.75 240.621 127.998 240.581 128.241 240.548C129.994 240.347 131.76 240.289 133.522 240.373L135.175 240.406L142.101 240.548H142.292C145.075 240.601 148 240.621 150.514 239.512C150.834 239.37 151.146 239.21 151.448 239.033C151.706 238.902 151.928 238.71 152.094 238.472C152.256 238.145 152.322 237.779 152.285 237.416L152.261 233.761L152.212 226.713C152.212 224.983 152.201 223.254 152.179 221.526C152.111 220.991 152.165 220.447 152.337 219.935C152.509 219.424 152.796 218.958 153.175 218.573C154.186 217.302 156.652 212.814 158.399 212.741C158.709 212.723 159.016 212.809 159.272 212.984C160.759 213.975 160.767 217.733 160.803 219C160.844 220.4 160.905 221.798 160.986 223.196C161.319 228.918 161.998 234.615 163.017 240.256C163.318 241.876 163.643 243.574 163.253 245.199Z" fill="#A0616A"/>
    <path opacity="0.1" d="M163.253 245.199C162.924 246.334 162.421 247.411 161.762 248.392C161.327 249.225 160.743 249.971 160.04 250.593C158.598 251.726 156.603 251.702 154.759 251.596H154.613L153.699 251.544L148.454 251.231C147.065 251.181 145.68 251.033 144.311 250.788C143.945 250.715 143.584 250.626 143.222 250.528C141.191 249.984 139.205 249.171 137.105 249.054C136.496 249.017 135.886 249.054 135.265 249.054H135.094C134.687 249.054 134.279 249.027 133.875 248.972C133.209 248.875 132.555 248.664 131.877 248.631C130.138 248.542 128.603 249.586 127.12 250.536L126.714 250.788C125.653 251.46 124.526 252.021 123.351 252.462H116.307C116.188 252.371 116.077 252.269 115.978 252.157C115.857 252.024 115.751 251.878 115.661 251.722C115.641 251.686 115.62 251.649 115.604 251.613C115.375 251.122 115.257 250.588 115.257 250.047C115.257 249.506 115.375 248.971 115.604 248.481C115.866 247.917 116.213 247.397 116.632 246.937C117.093 246.437 117.59 245.97 118.119 245.54C120.856 243.257 124.005 241.332 127.506 240.666C127.75 240.621 127.998 240.581 128.241 240.548C129.994 240.347 131.76 240.289 133.522 240.373L135.175 240.406L142.101 240.548H142.292C145.075 240.601 148 240.621 150.514 239.512C150.834 239.37 151.146 239.21 151.448 239.033C151.706 238.902 151.928 238.71 152.094 238.472C152.256 238.145 152.322 237.779 152.285 237.416L152.261 233.761L152.212 226.713C152.212 224.983 152.201 223.254 152.179 221.526C152.111 220.991 152.165 220.447 152.337 219.935C152.509 219.424 152.796 218.958 153.175 218.573C154.186 217.302 156.652 212.814 158.399 212.741C158.709 212.723 159.016 212.809 159.272 212.984C160.759 213.975 160.767 217.733 160.803 219C160.844 220.4 160.905 221.798 160.986 223.196C161.319 228.918 161.998 234.615 163.017 240.256C163.318 241.876 163.643 243.574 163.253 245.199Z" fill="black"/>
    <path d="M129.289 172.865C128.257 173.019 127.116 173.295 126.555 174.173C126.117 174.855 126.149 175.72 125.999 176.517C125.756 177.795 125.043 178.935 124 179.713C123.147 180.343 122.115 180.696 121.234 181.285C120.352 181.874 119.573 182.837 119.69 183.893C119.792 184.815 120.527 185.518 120.872 186.387C121.51 187.971 120.759 189.738 120.06 191.298C119.361 192.857 118.703 194.693 119.504 196.2C120.353 197.789 122.542 198.39 123.159 200.075C123.927 202.106 121.941 204.271 122.197 206.436C122.416 208.215 124.171 209.487 125.946 209.747C126.795 209.869 127.737 209.783 128.383 209.219C129.029 208.654 129.232 207.732 129.261 206.875C129.37 203.569 127.49 200.534 126.941 197.269C126.763 196.192 126.738 195.039 127.238 194.068C127.555 193.455 128.05 192.951 128.326 192.313C128.875 190.985 128.253 189.38 128.842 188.069C129.176 187.494 129.561 186.95 129.992 186.444C130.37 185.895 130.622 185.168 130.325 184.571C131.375 185.239 132.213 186.191 132.742 187.317C133.51 187.163 133.489 185.514 134.241 185.749C134.452 185.818 134.574 186.042 134.712 186.216C134.988 186.524 135.349 186.744 135.748 186.85C136.148 186.955 136.57 186.941 136.963 186.809C137.744 186.529 138.431 186.035 138.945 185.384L140.228 186.976C140.345 186.701 140.542 186.469 140.794 186.309C141.046 186.149 141.34 186.07 141.638 186.082C142.234 186.123 142.809 186.321 143.303 186.655C145.741 188.113 147.569 191.099 146.634 193.779C146.228 194.925 145.416 195.863 144.871 196.952C144.327 198.04 144.189 199.503 145.058 200.348C145.237 200.526 145.465 200.664 145.619 200.859C146.257 201.611 145.854 202.756 146.045 203.703C146.383 205.445 148.438 206.14 150.168 206.546C151.387 206.822 152.837 207.029 153.69 206.14C154.625 205.165 154.206 203.569 153.642 202.342C153.077 201.115 152.423 199.698 153.028 198.495C153.633 197.293 155.409 196.871 156.046 195.615C156.859 194.019 155.425 192.268 154.852 190.571C154.068 188.247 154.941 185.639 154.3 183.259C153.91 182.058 153.302 180.94 152.504 179.961C150.607 177.41 148.332 175.066 145.513 173.588C142.849 172.191 140.163 171.963 137.227 172.317C134.59 172.65 131.934 172.471 129.289 172.865Z" fill="#3C354C"/>
    <path d="M152.443 226.851C152.325 226.782 152.222 226.689 152.141 226.578C152.061 226.467 152.005 226.34 151.976 226.206C151.074 223.671 150.229 221.119 149.441 218.549C149.262 218.096 149.197 217.607 149.25 217.123C149.434 216.52 149.818 215.996 150.339 215.641C151.674 214.54 153.175 213.66 154.787 213.033C155.957 212.574 157.683 211.758 158.849 212.501C160.295 213.423 158.752 215.75 158.224 216.969C157.508 218.64 156.694 220.268 155.786 221.843C155.51 222.331 152.813 226.998 152.443 226.851Z" fill="#F2F2F2"/>
    <path d="M154.763 251.596C154.661 251.794 154.532 251.977 154.381 252.141C154.336 252.193 154.287 252.242 154.235 252.287C154.178 252.344 154.116 252.397 154.052 252.445H146.988C145.812 252.004 144.685 251.444 143.624 250.772L143.218 250.52C141.735 249.569 140.2 248.526 138.461 248.615C137.783 248.647 137.129 248.859 136.463 248.956C136.059 249.01 135.652 249.037 135.244 249.037H135.074C134.46 249.037 133.855 249.009 133.233 249.037C131.133 249.155 129.151 249.967 127.116 250.512C126.754 250.609 126.393 250.699 126.027 250.772C124.658 251.017 123.274 251.165 121.884 251.214L115.726 251.58H115.58C113.739 251.686 111.745 251.71 110.299 250.577C109.595 249.954 109.011 249.208 108.576 248.375C107.918 247.394 107.415 246.317 107.086 245.183C106.679 243.558 107.021 241.86 107.317 240.215C108.581 233.193 109.319 226.087 109.523 218.955C109.559 217.684 109.568 213.914 111.062 212.935C111.231 212.819 111.424 212.744 111.627 212.716C111.727 212.706 111.828 212.706 111.928 212.716C113.674 212.789 116.14 217.278 117.152 218.549C117.53 218.934 117.817 219.399 117.989 219.911C118.162 220.422 118.215 220.966 118.147 221.502C118.147 223.17 118.136 224.841 118.114 226.514C118.114 226.591 118.114 226.669 118.114 226.742C118.095 230.3 118.072 233.857 118.045 237.412C118.008 237.775 118.074 238.141 118.236 238.468C118.294 238.563 118.365 238.649 118.447 238.724C118.582 238.84 118.727 238.942 118.882 239.029C121.583 240.621 124.902 240.605 128.038 240.544H128.229L135.155 240.402L136.808 240.369C138.57 240.285 140.336 240.343 142.089 240.544C142.333 240.576 142.58 240.617 142.824 240.662C145.514 241.233 148.05 242.377 150.258 244.017C150.935 244.496 151.593 245.003 152.232 245.536C153.231 246.348 154.214 247.291 154.746 248.477C154.976 248.964 155.096 249.496 155.099 250.035C155.102 250.574 154.987 251.106 154.763 251.596Z" fill="#A0616A"/>
    <path d="M118.342 226.851C118.46 226.782 118.562 226.688 118.643 226.577C118.723 226.466 118.78 226.34 118.809 226.206C119.711 223.671 120.556 221.119 121.344 218.549C121.52 218.096 121.584 217.607 121.531 217.123C121.347 216.52 120.963 215.996 120.442 215.641C119.11 214.539 117.609 213.659 115.998 213.033C114.828 212.574 113.106 211.758 111.936 212.501C110.49 213.423 112.029 215.75 112.561 216.969C113.276 218.641 114.09 220.269 114.999 221.843C115.275 222.331 117.972 226.998 118.342 226.851Z" fill="#F2F2F2"/>
    <path d="M338.123 180.745C340.54 180.156 342.417 184.157 344.85 183.682C346.186 183.422 347.218 181.838 348.571 181.956C350.11 182.09 350.768 184.194 351.556 185.733C352.925 188.398 355.692 190.01 358.356 189.689C359.193 188.585 359.035 186.887 358.608 185.506C358.182 184.125 357.532 182.784 357.515 181.314C357.495 179.368 358.563 177.215 357.597 175.627C356.853 174.409 355.334 174.311 354.217 173.56C353.344 172.975 352.73 171.996 351.999 171.196C350.826 169.887 349.221 169.044 347.478 168.819C346.04 168.657 344.594 168.966 343.172 169.274L336.526 170.712C336.14 170.758 335.777 170.924 335.491 171.188C335.22 171.599 335.038 172.063 334.954 172.548C334.325 174.612 332.351 175.578 330.738 176.724C329.125 177.869 327.594 180.136 328.483 182.065C328.987 183.158 330.173 183.832 330.299 185.059C330.409 186.156 329.617 187.053 328.971 187.866C326.229 191.302 332.375 193.089 333.845 190.758C335.483 188.191 334.666 181.59 338.123 180.745Z" fill="#3C354C"/>
    <path d="M334.609 202.358C334.032 203.11 333.281 203.735 332.818 204.564C332.237 205.749 332.14 207.115 332.55 208.37C332.967 209.608 333.55 210.783 334.284 211.863C335.126 213.339 336.149 214.704 337.331 215.925C338.519 217.158 340.098 217.942 341.799 218.143C343.607 218.277 345.354 217.529 346.991 216.745C347.689 216.467 348.326 216.053 348.863 215.527C349.255 215.029 349.562 214.471 349.773 213.874L351.183 210.498C351.579 209.679 351.853 208.806 351.995 207.907C352.141 206.505 351.654 205.12 351.183 203.792L348.603 196.696C348.496 196.289 348.283 195.918 347.986 195.62C347.703 195.415 347.379 195.276 347.035 195.213C345.402 194.791 343.734 194.519 342.051 194.401C340.8 194.316 337.96 193.873 336.868 194.58C335.864 195.234 336.283 196.899 336.165 197.975C336.059 199.552 335.521 201.068 334.609 202.358Z" fill="#A0616A"/>
    <path opacity="0.1" d="M334.609 202.358C334.032 203.11 333.281 203.735 332.818 204.564C332.237 205.749 332.14 207.115 332.55 208.37C332.967 209.608 333.55 210.783 334.284 211.863C335.126 213.339 336.149 214.704 337.331 215.925C338.519 217.158 340.098 217.942 341.799 218.143C343.607 218.277 345.354 217.529 346.991 216.745C347.689 216.467 348.326 216.053 348.863 215.527C349.255 215.029 349.562 214.471 349.773 213.874L351.183 210.498C351.579 209.679 351.853 208.806 351.995 207.907C352.141 206.505 351.654 205.12 351.183 203.792L348.603 196.696C348.496 196.289 348.283 195.918 347.986 195.62C347.703 195.415 347.379 195.276 347.035 195.213C345.402 194.791 343.734 194.519 342.051 194.401C340.8 194.316 337.96 193.873 336.868 194.58C335.864 195.234 336.283 196.899 336.165 197.975C336.059 199.552 335.521 201.068 334.609 202.358Z" fill="black"/>
    <path d="M343.05 200.689C349.265 200.689 354.303 195.651 354.303 189.437C354.303 183.223 349.265 178.186 343.05 178.186C336.836 178.186 331.798 183.223 331.798 189.437C331.798 195.651 336.836 200.689 343.05 200.689Z" fill="#A0616A"/>
    <path d="M367.984 217.533C368.008 220.637 366.818 223.626 365.587 226.47C364.356 229.313 362.792 232.12 361.59 235.04C361.492 235.276 361.399 235.515 361.306 235.755C359.237 241.1 357.406 246.528 355.814 252.039L355.696 252.445H320.802C322.395 246.352 323.759 240.26 319.941 236.056C319.823 235.926 319.705 235.792 319.592 235.649C317.093 232.639 315.972 228.533 313.003 225.974C312.32 225.385 311.528 224.865 311.106 224.065C310.863 223.573 310.741 223.03 310.748 222.481C310.746 221.997 310.776 221.514 310.838 221.035C311.13 218.395 311.508 215.624 313.1 213.496C313.828 212.565 314.698 211.756 315.68 211.099C317.849 209.575 320.291 208.484 322.874 207.886C325.782 207.22 328.991 207.123 331.364 205.307C331.863 204.847 332.407 204.439 332.989 204.089L333.151 204.02C333.432 203.887 333.744 203.834 334.053 203.867C334.362 203.9 334.655 204.017 334.902 204.206C335.209 204.548 335.412 204.971 335.487 205.425C335.917 207.001 336.349 208.577 336.783 210.153C336.929 210.932 337.265 211.663 337.762 212.281C338.911 213.476 341.109 213.333 342.002 214.719C342.539 215.559 343.948 214.58 344.562 213.801C346.049 211.917 347.336 209.883 348.4 207.732C348.759 206.879 349.238 206.082 349.822 205.364C350.241 204.902 350.786 204.572 351.39 204.414C351.685 204.341 351.993 204.332 352.292 204.389C353.169 204.568 353.811 205.291 354.408 205.957C357.981 209.947 362.203 213.305 366.895 215.888C367.267 216.046 367.585 216.308 367.809 216.644C367.907 216.848 367.96 217.071 367.963 217.298C367.98 217.383 367.984 217.46 367.984 217.533Z" fill="#3C354C"/>
    <path d="M339.338 180.172C341.218 179.766 342.677 182.467 344.57 182.146C345.61 181.976 346.414 180.928 347.462 180.989C348.66 181.078 349.172 182.492 349.785 183.523C350.331 184.414 351.115 185.135 352.047 185.605C352.98 186.074 354.026 186.275 355.066 186.184C355.716 185.44 355.594 184.303 355.261 183.373C354.928 182.443 354.42 181.541 354.408 180.558C354.408 179.246 355.221 177.8 354.473 176.732C353.896 175.919 352.714 175.846 351.845 175.343C351.167 174.937 350.691 174.291 350.118 173.755C349.155 172.85 347.92 172.289 346.605 172.158C345.48 172.102 344.353 172.204 343.258 172.463L338.091 173.43C337.795 173.454 337.512 173.564 337.278 173.746C337.076 174.016 336.937 174.329 336.872 174.66C336.38 176.049 334.841 176.691 333.594 177.467C332.347 178.243 331.157 179.762 331.839 181.058C332.245 181.793 333.151 182.244 333.249 183.089C333.338 183.824 332.72 184.429 332.217 184.973C330.088 187.281 334.865 188.483 336.015 186.915C337.286 185.176 336.648 180.741 339.338 180.172Z" fill="#3C354C"/>
    <path d="M373.264 252.445H363.763C363.917 248.554 362.333 244.602 362.138 240.633C362.065 239.143 362.191 237.628 361.89 236.165C361.811 235.785 361.71 235.409 361.586 235.04C361.346 234.289 361.054 233.549 360.826 232.794C360.071 230.272 360.099 227.591 360.136 224.959C360.179 222.053 360.225 219.15 360.274 216.25C360.274 215.494 360.05 214.382 360.737 214.065C362.284 213.35 363.893 214.767 365.315 215.689C366.168 216.258 367.143 216.705 367.971 217.314C368.465 217.654 368.893 218.081 369.235 218.573C369.635 219.251 369.919 219.991 370.076 220.763C371.226 225.158 372.228 229.589 373.082 234.057C373.487 235.999 373.759 237.967 373.894 239.947C374.142 244.106 373.277 248.302 373.264 252.445Z" fill="#3C354C"/>
    <path d="M314.25 247.92C313.844 248.911 313.405 249.951 313.466 251.032C313.503 251.516 313.612 251.993 313.791 252.445H305.183C304.751 250.981 304.426 249.488 304.208 247.977C303.802 245.036 304.026 242.043 304.407 239.094C304.664 236.804 305.164 234.547 305.898 232.363C306.898 229.565 308.478 227.03 309.822 224.398C310.139 223.785 310.427 223.094 310.765 222.485C311.488 221.148 312.422 220.166 314.282 221.063C318.909 223.293 320.896 231.104 319.608 235.653C319.61 235.666 319.61 235.678 319.608 235.69C319.241 236.845 318.782 237.968 318.235 239.049C316.838 241.979 315.509 244.936 314.25 247.92Z" fill="#3C354C"/>
    <path d="M238.849 175.058C239.77 175.394 240.541 176.048 241.022 176.902C241.392 177.67 241.38 178.568 241.631 179.384C242.164 181.102 243.764 182.228 244.759 183.73C246.108 185.761 246.266 188.349 246.173 190.786C246.079 193.223 245.767 195.709 246.376 198.077C246.664 199.231 247.156 200.327 247.355 201.501C247.595 202.923 247.396 204.409 247.761 205.807C248.082 207.078 248.834 208.191 249.573 209.272L252.733 213.89C251.319 213.555 249.926 213.136 248.561 212.635C248.982 213.958 249.763 215.138 250.816 216.043L248.533 213.281C248.068 212.641 247.492 212.09 246.831 211.656C245.994 211.181 245.003 211.108 244.061 210.913C242.253 210.547 240.441 209.621 239.556 207.992C238.374 205.823 239.149 203.098 238.471 200.717C237.988 198.979 236.793 197.545 235.973 195.945C234.108 192.317 234.222 188.04 233.637 184.003C233.385 182.289 233.003 180.587 232.995 178.852C232.995 177.573 233.121 175.144 234.462 174.49C235.624 173.941 237.768 174.599 238.849 175.058Z" fill="#3F3D56"/>
    <path d="M240.242 204.113C240.433 206.233 240.876 208.735 242.809 209.625C243.902 210.129 245.174 209.942 246.36 210.137C248.598 210.498 250.422 212.221 251.478 214.239C252.534 216.258 252.871 218.549 253.103 220.807C253.407 223.63 253.509 226.697 251.953 229.077C250.698 231.007 248.529 232.181 246.307 232.778C244.071 233.361 241.733 233.444 239.461 233.023C237.189 232.602 235.037 231.686 233.158 230.341C231.318 229.004 229.798 227.282 228.32 225.56C225.099 221.811 221.857 217.7 221.195 212.801C221.118 212.245 221.126 211.583 221.601 211.242C221.916 211.064 222.278 210.992 222.637 211.034L225.724 211.091C226.508 211.091 227.394 211.091 227.926 210.502C228.458 209.913 228.425 209.174 228.405 208.471C228.327 205.493 228.248 202.507 228.17 199.515C228.122 199.198 228.195 198.875 228.373 198.609C228.569 198.432 228.819 198.324 229.083 198.305C230.786 198.016 232.565 198.305 234.23 197.842C235.814 197.407 238.292 195.587 239.466 197.456C240.449 199.019 240.092 202.31 240.242 204.113Z" fill="#FFC1C7"/>
    <path opacity="0.1" d="M240.242 204.113C240.433 206.233 240.876 208.735 242.809 209.625C243.902 210.129 245.174 209.942 246.36 210.137C248.598 210.498 250.422 212.221 251.478 214.239C252.534 216.258 252.871 218.549 253.103 220.807C253.407 223.63 253.509 226.697 251.953 229.077C250.698 231.007 248.529 232.181 246.307 232.778C244.071 233.361 241.733 233.444 239.461 233.023C237.189 232.602 235.037 231.686 233.158 230.341C231.318 229.004 229.798 227.282 228.32 225.56C225.099 221.811 221.857 217.7 221.195 212.801C221.118 212.245 221.126 211.583 221.601 211.242C221.916 211.064 222.278 210.992 222.637 211.034L225.724 211.091C226.508 211.091 227.394 211.091 227.926 210.502C228.458 209.913 228.425 209.174 228.405 208.471C228.327 205.493 228.248 202.507 228.17 199.515C228.122 199.198 228.195 198.875 228.373 198.609C228.569 198.432 228.819 198.324 229.083 198.305C230.786 198.016 232.565 198.305 234.23 197.842C235.814 197.407 238.292 195.587 239.466 197.456C240.449 199.019 240.092 202.31 240.242 204.113Z" fill="black"/>
    <path d="M232.467 203.532C238.984 203.532 244.268 198.249 244.268 191.732C244.268 185.216 238.984 179.933 232.467 179.933C225.95 179.933 220.667 185.216 220.667 191.732C220.667 198.249 225.95 203.532 232.467 203.532Z" fill="#FFC1C7"/>
    <path d="M258.733 242.262C258.652 242.744 258.54 243.221 258.396 243.688C258.018 244.778 257.584 245.848 257.096 246.893C256.909 247.327 256.734 247.762 256.584 248.209C256.466 248.558 256.365 248.916 256.275 249.273C256.186 249.63 256.08 250.114 256.007 250.54C255.898 251.17 255.816 251.808 255.751 252.445H224.956C225.089 250.887 225.03 249.318 224.782 247.774C224.368 245.648 223.731 243.572 222.881 241.58C220.919 236.551 218.725 231.425 217.519 226.181C217.519 226.181 217.519 226.181 217.519 226.161C216.675 222.758 216.422 219.235 216.771 215.746C216.796 215.543 216.824 215.34 216.852 215.129C216.925 214.602 217.024 214.078 217.149 213.561C217.447 212.089 218.123 210.72 219.111 209.589C220.492 208.102 222.828 207.367 224.619 208.317C225.7 208.89 226.37 209.905 226.906 211.03C227.247 211.745 227.536 212.501 227.836 213.22C228.937 215.815 230.52 218.179 232.5 220.186C232.877 220.592 233.276 220.954 233.686 221.311C234.096 221.669 234.454 221.969 234.856 222.278C236.16 223.281 237.732 224.552 239.434 224.597C240.421 224.626 241.428 224.597 242.448 224.597C243.341 224.597 244.243 224.561 245.133 224.597C247.038 224.634 249.195 224.093 250.117 222.424C250.747 221.283 250.641 219.889 250.523 218.59C250.43 217.574 250.336 216.559 250.239 215.539C250.239 215.486 250.239 215.434 250.239 215.381C250.174 214.646 250.105 213.918 250.036 213.183C250.003 212.83 249.971 212.472 249.934 212.119L249.861 211.331C250.2 211.293 250.541 211.261 250.885 211.234C252.424 211.112 253.996 211.14 255.321 211.892C256.58 212.602 257.352 213.825 257.847 215.21C258.177 216.197 258.389 217.22 258.481 218.257C258.936 222.867 258.201 227.518 258.453 232.14C258.615 235.487 259.322 238.96 258.733 242.262Z" fill="#2B9AB2"/>
    <path d="M265.764 252.445H256.45C256.373 251.389 256.312 250.333 256.275 249.273C256.243 248.542 256.219 247.806 256.206 247.075C256.166 245.104 256.182 243.138 256.255 241.177C258.089 242.214 260.142 242.8 262.247 242.888C263.098 243.841 263.785 244.929 264.278 246.109C264.554 246.757 264.786 247.423 264.972 248.103C264.975 248.112 264.975 248.122 264.972 248.131C265.354 249.545 265.619 250.988 265.764 252.445Z" fill="#FFC1C7"/>
    <path d="M264.948 246.096C261.425 246.131 257.919 246.595 254.508 247.478C254.057 245.252 254.277 242.953 254.508 240.694L256.015 225.174C256.125 224.024 255.914 213.472 258.14 215.336C258.952 216.022 259.992 222.192 260.248 223.183C260.634 224.682 260.939 226.197 261.211 227.717C261.767 230.836 262.145 233.98 262.685 237.104C262.84 238.005 264.144 246.105 264.948 246.096Z" fill="#2B9AB2"/>
    <path d="M236.964 176.728C236.98 176.359 236.896 175.992 236.72 175.668C236.568 175.475 236.376 175.316 236.159 175.201C235.941 175.086 235.702 175.018 235.457 175.002C233.755 174.738 231.886 175.408 230.347 174.644C229.534 174.238 228.921 173.426 228.108 172.975C226.191 171.89 223.77 172.975 222.072 174.38C219.369 176.625 217.398 179.626 216.414 182.999C215.658 185.607 215.353 188.658 213.192 190.311C212.299 190.993 211.161 191.371 210.491 192.281C209.987 192.979 209.869 193.877 209.776 194.718C209.553 196.7 209.37 198.731 209.886 200.656C210.292 202.09 211.043 203.39 211.511 204.799C212.154 206.795 212.213 208.932 211.682 210.96C211.151 212.988 210.051 214.822 208.513 216.246C209.3 216.736 210.247 216.901 211.153 216.705C211.136 217.121 211.003 217.525 210.771 217.871C213.533 217.781 215.934 215.092 218.635 215.681C220.699 216.128 221.849 218.256 223.388 219.702C225.37 221.567 228.45 222.347 230.94 221.242C233.43 220.137 234.941 216.993 233.885 214.483C232.666 211.64 228.974 210.498 227.686 207.675C226.691 205.486 227.43 202.935 227.215 200.543C227.032 198.487 226.146 196.574 225.59 194.588C225.033 192.602 224.859 190.331 225.996 188.601C227.19 186.765 229.477 186.05 231.557 185.351C236.241 183.84 237.142 181.464 236.964 176.728Z" fill="#3F3D56"/>
    <path d="M234.063 219.15C234.401 217.525 234.734 215.75 234.141 214.178C233.036 211.246 229.425 210.332 226.926 208.443C225.479 207.344 224.367 205.863 223.717 204.166C223.262 202.976 223.201 201.323 224.318 200.721C224.753 200.518 225.234 200.434 225.712 200.478C229.603 200.567 233.17 202.683 236.155 205.185C237.89 206.644 239.539 208.313 240.404 210.405C241.018 211.888 241.217 213.504 241.392 215.096L242.001 220.377C242.403 223.404 242.638 226.451 242.704 229.504C242.708 231.254 242.598 233.003 242.375 234.74C242.22 235.958 241.968 237.242 241.266 238.253C239.917 240.134 237.325 240.556 235.01 240.621C234.136 240.672 233.259 240.616 232.398 240.455C228.551 239.618 225.635 234.232 228.543 230.905C229.762 229.492 231.638 229.455 232.341 227.518C233.284 224.951 233.511 221.843 234.063 219.15Z" fill="#FFC1C7"/>
    <path d="M230.94 220.076L233.974 225.036C234.156 225.293 234.281 225.584 234.344 225.893C234.429 226.539 233.938 227.111 233.564 227.635C230.948 231.21 231.614 236.125 232.402 240.483C228.227 239.159 224.51 236.687 221.675 233.348C218.84 230.01 217.003 225.941 216.373 221.607C215.991 219.012 215.374 214.739 217.677 213.049C223.226 208.979 228.336 215.827 230.94 220.076Z" fill="#2B9AB2"/>
    <path d="M246.36 210.137C245.174 209.942 243.922 210.137 242.809 209.625C240.876 208.735 240.433 206.233 240.242 204.113C240.242 203.918 240.214 203.707 240.206 203.475C240.898 202.762 241.649 202.108 242.452 201.522C243.176 201.098 243.946 200.759 244.747 200.51L246.892 199.755C247.089 200.325 247.244 200.908 247.355 201.501C247.595 202.923 247.396 204.41 247.761 205.807C248.082 207.078 248.834 208.191 249.573 209.272L252.733 213.89C252.16 213.756 251.592 213.602 251.027 213.439C249.934 211.782 248.297 210.45 246.36 210.137Z" fill="#3F3D56"/>
    <path d="M43.4201 291.102C44.6388 288.864 43.2576 286.118 41.6775 284.124C40.0973 282.129 38.18 280.062 38.2206 277.507C38.2815 273.851 42.1609 271.694 45.2603 269.753C47.5617 268.316 49.6836 266.61 51.5809 264.671C52.3761 263.926 53.0334 263.046 53.5226 262.072C54.1644 260.642 54.1482 259.017 54.1076 257.453C53.9695 252.238 53.7108 247.027 53.3317 241.819" stroke="#3F3D56" stroke-width="4" stroke-miterlimit="10"/>
    <path d="M59.2258 241.535C59.1826 240.58 58.8994 239.652 58.4024 238.835C57.9054 238.019 57.2106 237.341 56.3823 236.864L55.1068 239.39L55.1474 236.332C54.5373 236.153 53.9018 236.076 53.2666 236.104C52.1446 236.16 51.0642 236.547 50.1617 237.216C49.2593 237.884 48.5751 238.806 48.1956 239.863C47.8162 240.92 47.7583 242.066 48.0294 243.156C48.3005 244.246 48.8884 245.232 49.719 245.988C50.5495 246.745 51.5855 247.238 52.6962 247.406C53.8069 247.575 54.9426 247.41 55.9599 246.934C56.9773 246.458 57.8308 245.691 58.4127 244.73C58.9947 243.769 59.279 242.657 59.2298 241.535H59.2258Z" fill="#2B9AB2"/>
    <path d="M49.0583 280.119C48.4603 281.278 47.4821 282.196 46.2876 282.72C45.0931 283.243 43.7549 283.34 42.4973 282.995C41.2397 282.649 40.1391 281.882 39.38 280.821C38.6208 279.761 38.2493 278.472 38.3277 277.17C38.406 275.868 38.9294 274.633 39.8103 273.671C40.6911 272.709 41.8758 272.079 43.1657 271.887C44.4557 271.695 45.7726 271.951 46.8957 272.615C48.0188 273.278 48.8798 274.306 49.3345 275.529L45.772 278.425L49.692 277.519C49.6905 278.424 49.4733 279.315 49.0583 280.119Z" fill="#2B9AB2"/>
    <path d="M46.2432 269.05C44.8267 269.15 43.424 268.717 42.3109 267.835C41.1979 266.953 40.455 265.687 40.2284 264.285C40.0018 262.883 40.3079 261.447 41.0864 260.26C41.865 259.072 43.0597 258.219 44.4356 257.868L44.4031 260.216L45.6948 257.661C46.4458 257.622 47.197 257.732 47.9049 257.986C48.6129 258.239 49.2636 258.631 49.8193 259.137C50.375 259.644 50.8247 260.256 51.1424 260.937C51.4601 261.619 51.6395 262.356 51.6702 263.108C51.7036 263.765 51.6211 264.424 51.4265 265.053C51.0795 266.172 50.3953 267.157 49.4675 267.872C48.5398 268.587 47.4137 268.999 46.2432 269.05Z" fill="#2B9AB2"/>
    <path d="M60.0829 259.858C59.2078 259.89 58.337 259.72 57.5386 259.36C56.7401 259.001 56.0355 258.462 55.4796 257.785C54.9238 257.108 54.5317 256.313 54.3339 255.46C54.1362 254.607 54.1381 253.719 54.3395 252.867C54.541 252.015 54.9365 251.221 55.4953 250.547C56.0541 249.872 56.7611 249.336 57.5611 248.98C58.3611 248.624 59.2326 248.458 60.1076 248.494C60.9825 248.53 61.8374 248.767 62.6055 249.188L61.598 251.95L63.6697 249.959C64.7799 250.976 65.4417 252.392 65.5099 253.895C65.5369 254.423 65.489 254.953 65.3677 255.467C65.0863 256.675 64.4175 257.758 63.4634 258.551C62.5093 259.344 61.3221 259.803 60.0829 259.858Z" fill="#2B9AB2"/>
    <path opacity="0.1" d="M58.4581 243.054C57.142 243.196 55.8624 243.607 54.5423 243.688C53.2221 243.769 51.7719 243.456 50.9351 242.429C50.4883 241.876 50.2608 241.178 49.883 240.572C49.5222 240.01 49.0283 239.545 48.445 239.22C48.101 239.939 47.912 240.722 47.8903 241.519C47.8686 242.315 48.0145 243.108 48.3188 243.844C48.623 244.581 49.0788 245.246 49.6564 245.795C50.234 246.344 50.9206 246.766 51.6717 247.032C52.4228 247.299 53.2216 247.405 54.0163 247.343C54.8109 247.281 55.5837 247.053 56.2845 246.674C56.9853 246.294 57.5985 245.771 58.0842 245.139C58.5699 244.507 58.9174 243.78 59.104 243.005C58.8874 243.014 58.6721 243.03 58.4581 243.054Z" fill="black"/>
    <path opacity="0.1" d="M60.0828 259.858C59.0996 259.908 58.1202 259.702 57.2406 259.26C56.361 258.818 55.6112 258.155 55.0646 257.336C54.518 256.517 54.1934 255.57 54.1225 254.589C54.0515 253.607 54.2367 252.623 54.6599 251.734C55.1122 252.038 55.5013 252.427 55.8054 252.88C56.2116 253.493 56.4594 254.204 56.9347 254.765C57.8243 255.808 59.3394 256.15 60.7165 256.089C62.0936 256.028 63.4219 255.634 64.7786 255.508C64.9695 255.508 65.1605 255.479 65.3554 255.475C65.0731 256.68 64.4055 257.76 63.4539 258.551C62.5024 259.342 61.3188 259.801 60.0828 259.858Z" fill="black"/>
    <path opacity="0.1" d="M46.2431 269.05C45.269 269.099 44.2986 268.897 43.4251 268.463C42.5517 268.03 41.8045 267.378 41.2554 266.572C40.7063 265.766 40.3738 264.832 40.2897 263.861C40.2057 262.889 40.3729 261.912 40.7755 261.024C41.2485 261.333 41.6614 261.725 41.9941 262.181C42.4369 262.807 42.7131 263.53 43.2127 264.107C44.1755 265.175 45.7922 265.553 47.2464 265.52C48.7007 265.488 50.0209 265.143 51.4223 265.033C51.079 266.155 50.397 267.143 49.4697 267.863C48.5424 268.582 47.4154 268.997 46.2431 269.05Z" fill="black"/>
    <path opacity="0.1" d="M49.0583 280.119C48.4415 281.497 47.3024 282.574 45.8915 283.113C44.4807 283.651 42.9137 283.607 41.5352 282.99C40.1568 282.374 39.0798 281.235 38.5412 279.824C38.0026 278.413 38.0465 276.846 38.6633 275.468C39.1339 275.776 39.5556 276.152 39.9144 276.585C40.4588 277.243 40.8162 277.994 41.4418 278.616C42.6076 279.761 44.4884 280.241 46.166 280.277C47.1324 280.282 48.0982 280.229 49.0583 280.119Z" fill="black"/>
    <path d="M34.8206 288.523C34.8206 288.523 39.3214 288.385 40.6781 287.418C42.0349 286.451 47.5837 285.302 47.9331 286.849C48.2824 288.397 54.6965 294.567 49.6189 294.591C44.5412 294.616 37.8143 293.803 36.4576 292.966C35.1008 292.13 34.8206 288.523 34.8206 288.523Z" fill="#656380"/>
    <path opacity="0.2" d="M49.7082 294.055C44.6265 294.096 37.9037 293.243 36.551 292.43C35.5192 291.801 35.109 289.55 34.9709 288.51H34.8206C34.8206 288.51 35.1049 292.142 36.4454 292.979C37.7859 293.815 44.525 294.632 49.6067 294.603C51.0731 294.603 51.5768 294.071 51.5484 293.299C51.3575 293.754 50.7969 294.043 49.7082 294.055Z" fill="black"/>
    <path d="M419.471 285.57C421.62 281.589 419.183 276.711 416.376 273.157C413.569 269.603 410.153 265.91 410.226 261.377C410.331 254.878 417.233 251.032 422.745 247.587C426.838 245.03 430.613 241.994 433.989 238.545C435.346 237.164 436.654 235.702 437.446 233.923C438.587 231.38 438.555 228.488 438.482 225.702C438.241 216.425 437.782 207.155 437.105 197.894" stroke="#3F3D56" stroke-width="4" stroke-miterlimit="10"/>
    <path d="M447.589 197.399C447.511 195.7 447.007 194.048 446.122 192.596C445.237 191.143 444.001 189.937 442.528 189.088L440.257 193.581L440.326 188.142C438.261 187.531 436.055 187.592 434.027 188.317C431.999 189.042 430.254 190.393 429.044 192.174C427.834 193.956 427.222 196.076 427.296 198.228C427.37 200.38 428.126 202.453 429.455 204.147C430.785 205.842 432.618 207.069 434.691 207.653C436.764 208.237 438.969 208.147 440.987 207.396C443.006 206.645 444.733 205.272 445.92 203.475C447.106 201.678 447.691 199.55 447.589 197.399Z" fill="#2B9AB2"/>
    <path d="M429.504 266.036C428.44 268.109 426.696 269.754 424.563 270.693C422.43 271.633 420.039 271.81 417.791 271.195C415.543 270.581 413.575 269.212 412.217 267.318C410.859 265.424 410.193 263.121 410.332 260.795C410.471 258.469 411.406 256.261 412.98 254.542C414.553 252.824 416.671 251.699 418.976 251.356C421.281 251.013 423.634 251.474 425.64 252.66C427.645 253.846 429.182 255.687 429.992 257.872L423.659 263.026L430.626 261.402C430.629 263.014 430.244 264.604 429.504 266.036Z" fill="#2B9AB2"/>
    <path d="M424.512 246.344C422.033 246.442 419.603 245.629 417.682 244.058C415.761 242.487 414.482 240.267 414.086 237.818C413.69 235.368 414.205 232.858 415.533 230.762C416.861 228.666 418.911 227.129 421.295 226.441L421.242 230.621L423.537 226.075H423.566C424.937 225.941 426.32 226.086 427.633 226.503C428.946 226.92 430.16 227.6 431.202 228.501C432.244 229.402 433.091 230.506 433.693 231.745C434.295 232.983 434.638 234.332 434.703 235.708C434.767 237.083 434.551 238.458 434.067 239.748C433.583 241.037 432.842 242.215 431.889 243.209C430.936 244.203 429.79 244.993 428.522 245.531C427.254 246.068 425.89 246.342 424.512 246.336V246.344Z" fill="#2B9AB2"/>
    <path d="M449.116 229.963C447.542 230.046 445.97 229.761 444.524 229.131C443.079 228.502 441.8 227.544 440.789 226.334C439.778 225.124 439.062 223.696 438.699 222.162C438.336 220.627 438.335 219.03 438.696 217.495C439.057 215.96 439.771 214.531 440.781 213.32C441.79 212.109 443.068 211.15 444.513 210.518C445.957 209.886 447.529 209.6 449.104 209.681C450.679 209.762 452.213 210.209 453.585 210.986L451.793 215.896L455.482 212.359C456.461 213.252 457.255 214.331 457.817 215.532C458.38 216.732 458.7 218.032 458.76 219.357C458.806 220.296 458.718 221.237 458.5 222.152C457.994 224.295 456.806 226.216 455.113 227.625C453.421 229.034 451.316 229.854 449.116 229.963Z" fill="#2B9AB2"/>
    <path opacity="0.1" d="M446.224 200.1C443.884 200.356 441.61 201.083 439.258 201.229C436.906 201.375 434.33 200.823 432.844 198.987C432.031 198.004 431.625 196.761 430.967 195.685C430.328 194.686 429.451 193.862 428.416 193.284C427.747 194.572 427.361 195.989 427.286 197.438C427.21 198.888 427.446 200.337 427.978 201.687C428.51 203.038 429.326 204.259 430.37 205.268C431.414 206.277 432.661 207.05 434.03 207.536C435.398 208.021 436.854 208.208 438.3 208.083C439.746 207.959 441.149 207.525 442.414 206.812C443.678 206.1 444.776 205.124 445.631 203.951C446.487 202.779 447.081 201.436 447.374 200.014C446.988 200.031 446.606 200.059 446.224 200.1Z" fill="black"/>
    <path opacity="0.1" d="M449.116 229.963C447.369 230.042 445.631 229.668 444.071 228.878C442.511 228.087 441.181 226.908 440.211 225.453C439.24 223.998 438.662 222.317 438.532 220.573C438.402 218.829 438.725 217.081 439.469 215.499C440.271 216.038 440.96 216.728 441.5 217.529C442.223 218.622 442.658 219.881 443.531 220.881C445.107 222.741 447.808 223.346 450.254 223.236C452.699 223.127 455.063 222.424 457.505 222.205C457.842 222.176 458.183 222.152 458.524 222.144C458.019 224.292 456.827 226.218 455.13 227.629C453.432 229.04 451.321 229.859 449.116 229.963Z" fill="black"/>
    <path opacity="0.1" d="M424.512 246.344C422.781 246.425 421.058 246.062 419.507 245.288C417.956 244.515 416.629 243.358 415.652 241.927C414.675 240.496 414.08 238.838 413.924 237.112C413.769 235.387 414.057 233.65 414.763 232.067C415.596 232.619 416.321 233.318 416.904 234.13C417.692 235.243 418.183 236.523 419.105 237.546C420.819 239.451 423.695 240.126 426.287 240.065C428.797 240.008 431.214 239.39 433.713 239.2C433.098 241.191 431.885 242.944 430.239 244.222C428.593 245.5 426.593 246.241 424.512 246.344Z" fill="black"/>
    <path opacity="0.1" d="M429.505 266.036C428.29 268.297 426.264 270.014 423.835 270.843C421.406 271.671 418.753 271.548 416.41 270.5C414.067 269.452 412.208 267.555 411.207 265.192C410.206 262.829 410.137 260.174 411.014 257.762C411.849 258.31 412.599 258.978 413.24 259.744C414.202 260.922 414.84 262.255 415.953 263.351C418.029 265.382 421.376 266.223 424.354 266.3C426.074 266.313 427.794 266.225 429.505 266.036Z" fill="black"/>
    <path d="M404.177 280.98C404.177 280.98 412.18 280.732 414.593 279.014C417.005 277.296 426.905 275.245 427.506 277.998C428.107 280.752 439.534 291.703 430.496 291.772C421.458 291.841 409.499 290.367 407.09 288.901C404.681 287.434 404.177 280.98 404.177 280.98Z" fill="#656380"/>
    <path opacity="0.2" d="M430.658 290.822C421.62 290.895 409.661 289.416 407.252 287.95C405.42 286.833 404.689 282.824 404.441 280.976H404.177C404.177 280.976 404.681 287.43 407.09 288.896C409.499 290.363 421.462 291.841 430.496 291.768C433.108 291.748 434.005 290.822 433.957 289.445C433.595 290.29 432.6 290.81 430.658 290.822Z" fill="black"/>
  </g>
  <defs>
    <clipPath id="clip0">
      <rect width="481" height="302" fill="white"/>
    </clipPath>
  </defs>
</svg>
